# Blender 4.4.0
# www.blender.org
mtllib windmill_blades.mtl
o windmill_blades
v 0.078527 0.194400 -0.203200
v 3.649225 0.129243 -2.308589
v 0.078527 -0.176078 -0.203200
v 3.649225 -0.135558 -2.308589
v 0.202933 0.194400 0.012278
v 3.676667 0.129243 -2.261059
v 0.202933 -0.176078 0.012278
v 3.676667 -0.135558 -2.261059
v 0.078527 0.009161 -0.203200
v 3.819715 0.009161 -2.474007
v 0.202933 0.009161 0.012278
v 3.905167 0.009161 -2.325999
v 0.616811 0.160287 -0.579477
v 0.616811 -0.145854 -0.579477
v 0.693868 -0.162853 -0.446009
v 0.693868 0.177285 -0.446010
v 1.199042 0.011567 -0.334538
v 0.576689 0.009161 -0.721694
v 0.120953 0.193526 0.181584
v 0.158924 0.128370 4.326594
v 0.120953 -0.176951 0.181584
v 0.158924 -0.136431 4.326594
v -0.127860 0.193526 0.181584
v 0.104041 0.128370 4.326594
v -0.127860 -0.176951 0.181584
v 0.104041 -0.136431 4.326594
v 0.120953 0.008288 0.181584
v 0.216935 0.008288 4.556952
v -0.127860 0.008288 0.181584
v 0.046031 0.008288 4.556952
v 0.177676 0.159413 0.835890
v 0.177676 -0.146727 0.835890
v 0.023561 -0.163726 0.835890
v 0.023561 0.176412 0.835890
v -0.331891 0.010343 1.222457
v 0.320900 0.008288 0.872253
v -0.199479 0.177298 0.021616
v -3.808148 0.112142 -2.018005
v -0.199479 -0.193180 0.021616
v -3.808148 -0.152659 -2.018005
v -0.075073 0.177298 -0.193862
v -3.780707 0.112142 -2.065535
v -0.075073 -0.193180 -0.193862
v -3.780707 -0.152659 -2.065535
v -0.199479 -0.007941 0.021616
v -4.036650 -0.007941 -2.082945
v -0.075073 -0.007941 -0.193862
v -3.951198 -0.007941 -2.230953
v -0.794486 0.143185 -0.256413
v -0.794486 -0.162956 -0.256413
v -0.717429 -0.179954 -0.389881
v -0.717429 0.160184 -0.389881
v -0.867151 -0.012401 -0.887919
v -0.897590 -0.007941 -0.150558
v 0.001850 0.317943 0.330573
v 0.001850 0.040164 0.304920
v 0.001850 -0.195326 0.231868
v 0.001850 -0.352675 0.122538
v -0.236444 0.317943 0.231868
v -0.218305 0.040164 0.213729
v -0.166649 -0.195326 0.162074
v -0.089341 -0.352675 0.084765
v -0.335148 0.317943 -0.006426
v -0.309496 0.040164 -0.006426
v -0.236444 -0.195326 -0.006426
v -0.127114 -0.352675 -0.006426
v -0.236444 0.317943 -0.244720
v -0.218305 0.040164 -0.226581
v -0.166649 -0.195326 -0.174925
v -0.089341 -0.352675 -0.097617
v 0.001850 0.317943 -0.343424
v 0.001850 0.040164 -0.317772
v 0.001850 -0.195326 -0.244720
v 0.001850 -0.352675 -0.135390
v 0.240144 0.317943 -0.244720
v 0.222005 0.040164 -0.226581
v 0.170349 -0.195326 -0.174925
v 0.093041 -0.352675 -0.097617
v 0.338849 0.317943 -0.006426
v 0.313196 0.040164 -0.006426
v 0.240144 -0.195326 -0.006426
v 0.130814 -0.352675 -0.006426
v 0.001850 -0.407929 -0.006426
v 0.240144 0.317943 0.231868
v 0.222005 0.040164 0.213729
v 0.170349 -0.195326 0.162073
v 0.093041 -0.352675 0.084765
vn -0.4890 -0.4876 -0.7232
vn 0.2443 -0.8623 -0.4435
vn -0.0949 -0.8479 -0.5216
vn -0.3726 -0.7645 -0.5260
vn 0.3029 -0.9435 0.1345
vn 0.1853 -0.9346 0.3035
vn 0.3131 0.8175 0.4834
vn 0.3925 0.9178 -0.0599
vn 0.2673 0.9555 0.1250
vn 0.1816 0.9394 0.2909
vn -0.1038 0.8668 -0.4877
vn -0.3635 0.7750 -0.5169
vn -0.8660 -0.0000 0.5000
vn 0.2129 0.8957 -0.3904
vn 0.4500 -0.8905 -0.0671
vn 0.3312 -0.7906 0.5150
vn -0.4816 0.5126 -0.7109
vn -0.5997 0.3712 -0.7089
vn 0.2270 -0.8938 0.3868
vn 0.3506 -0.6891 0.6342
vn 0.2253 0.8978 0.3784
vn 0.0070 0.9986 -0.0527
vn 0.3464 0.6977 0.6270
vn 0.0018 -0.9988 -0.0497
vn -0.6016 -0.3674 -0.7093
vn 0.8709 -0.4876 -0.0619
vn 0.2619 -0.8623 0.4333
vn 0.4991 -0.8479 0.1787
vn 0.6418 -0.7645 -0.0596
vn -0.2637 -0.9446 0.1951
vn -0.3510 -0.9363 0.0077
vn -0.5696 0.8214 0.0291
vn -0.1429 0.9181 0.3696
vn -0.2385 0.9563 0.1690
vn -0.3387 0.9408 0.0109
vn 0.4742 0.8668 0.1540
vn 0.6294 0.7750 -0.0563
vn -0.0000 -0.0000 -1.0000
vn 0.2317 0.8957 0.3796
vn -0.1648 -0.8910 0.4229
vn -0.6051 -0.7956 0.0290
vn 0.8564 0.5126 -0.0616
vn 0.9138 0.3712 -0.1650
vn -0.4437 -0.8962 0.0016
vn -0.7194 -0.6944 -0.0161
vn -0.4361 0.8999 0.0045
vn 0.0421 0.9986 0.0324
vn -0.7115 0.7025 -0.0158
vn 0.0421 -0.9988 0.0265
vn 0.9151 -0.3674 -0.1664
vn -0.3818 -0.4876 0.7851
vn -0.5063 -0.8623 0.0102
vn -0.4043 -0.8479 0.3429
vn -0.2693 -0.7645 0.5857
vn -0.0400 -0.9462 -0.3211
vn 0.1669 -0.9385 -0.3024
vn 0.2639 0.8153 -0.5154
vn -0.2469 0.9177 -0.3113
vn -0.0243 0.9549 -0.2958
vn 0.1609 0.9395 -0.3023
vn -0.3705 0.8668 0.3337
vn -0.2660 0.7750 0.5732
vn 0.8660 -0.0000 0.5000
vn -0.4446 0.8957 0.0108
vn -0.2857 -0.8917 -0.3512
vn 0.2741 -0.8015 -0.5314
vn -0.3748 0.5126 0.7725
vn -0.3140 0.3712 0.8738
vn 0.2194 -0.8988 -0.3794
vn 0.3732 -0.7004 -0.6084
vn 0.2149 0.8981 -0.3838
vn -0.0491 0.9986 0.0203
vn 0.3698 0.6983 -0.6129
vn -0.0440 -0.9988 0.0233
vn -0.3134 -0.3674 0.8757
vn -0.0000 -0.7141 0.7000
vn -0.0000 -0.4073 0.9133
vn -0.6458 -0.4073 0.6458
vn -0.4950 -0.7141 0.4950
vn -0.0000 -0.1842 0.9829
vn -0.0000 -0.0920 0.9958
vn -0.7041 -0.0920 0.7041
vn -0.6950 -0.1842 0.6950
vn -0.0000 -1.0000 -0.0000
vn -0.9958 -0.0920 -0.0000
vn -0.9829 -0.1842 -0.0000
vn -0.7000 -0.7141 -0.0000
vn -0.9133 -0.4073 -0.0000
vn -0.4950 -0.7141 -0.4950
vn -0.6950 -0.1842 -0.6950
vn -0.6458 -0.4073 -0.6458
vn -0.7041 -0.0920 -0.7041
vn -0.0000 -0.4073 -0.9133
vn -0.0000 -0.7141 -0.7000
vn -0.0000 -0.0920 -0.9958
vn -0.0000 -0.1842 -0.9829
vn 0.6458 -0.4073 -0.6458
vn 0.4950 -0.7141 -0.4950
vn 0.7041 -0.0920 -0.7041
vn 0.6950 -0.1842 -0.6950
vn 0.7000 -0.7141 -0.0000
vn 0.9829 -0.1842 -0.0000
vn 0.9133 -0.4073 -0.0000
vn 0.9958 -0.0920 -0.0000
vn 0.4950 -0.7141 0.4950
vn 0.6950 -0.1842 0.6950
vn 0.6458 -0.4073 0.6458
vn 0.7041 -0.0920 0.7041
vt 0.818313 0.213559
vt 0.873272 0.183863
vt 0.870383 0.186666
vt 0.818993 0.215969
vt 0.870848 0.187472
vt 0.820299 0.218231
vt 0.828860 0.220120
vt 0.874720 0.186371
vt 0.809871 0.222346
vt 0.811979 0.225998
vt 0.813978 0.240571
vt 0.812216 0.303016
vt 0.811233 0.299112
vt 0.811551 0.239955
vt 0.810303 0.299112
vt 0.808939 0.239955
vt 0.802915 0.246506
vt 0.809320 0.303016
vt 0.810590 0.228867
vt 0.806373 0.228867
vt 0.793328 0.223238
vt 0.740131 0.190490
vt 0.744003 0.191591
vt 0.795076 0.221444
vt 0.744468 0.190785
vt 0.796382 0.219182
vt 0.793844 0.210742
vt 0.741579 0.187982
vt 0.805159 0.226156
vt 0.807267 0.222504
vt 0.808571 0.227866
vt 0.808571 0.229719
vt 0.805716 0.228536
vt 0.807026 0.227226
vt 0.808571 0.230957
vt 0.808571 0.231392
vt 0.804533 0.229719
vt 0.804840 0.229411
vt 0.808571 0.225681
vt 0.802860 0.225681
vt 0.803295 0.225681
vt 0.806386 0.225681
vt 0.804533 0.225681
vt 0.807026 0.224135
vt 0.804840 0.221950
vt 0.805716 0.222825
vt 0.804533 0.221642
vt 0.808571 0.221642
vt 0.808571 0.223495
vt 0.808571 0.219969
vt 0.808571 0.220404
vt 0.811427 0.222825
vt 0.810117 0.224135
vt 0.812609 0.221642
vt 0.812302 0.221950
vt 0.810757 0.225681
vt 0.813847 0.225681
vt 0.812609 0.225681
vt 0.814282 0.225681
vt 0.810117 0.227226
vt 0.812302 0.229411
vt 0.811427 0.228536
vt 0.812609 0.229719
s 1
usemtl base_material
f 18/1/1 10/2/2 4/3/3 14/4/4
f 14/4/4 4/3/3 8/5/5 15/6/6
f 17/7/7 12/8/8 6/5/9 16/6/10
f 16/6/10 6/5/9 2/3/11 13/4/12
f 9/9/13 11/10/13 5/10/13 1/9/13
f 12/8/8 10/2/14 2/3/11 6/5/9
f 8/5/5 4/3/3 10/2/2 12/8/15
f 3/9/13 7/10/13 11/10/13 9/9/13
f 15/6/6 8/5/5 12/8/15 17/7/16
f 13/4/12 2/3/11 10/2/14 18/1/17
f 1/9/18 13/4/12 18/1/17 9/9/18
f 7/10/19 15/6/6 17/7/16 11/10/20
f 5/10/21 16/6/10 13/4/12 1/9/22
f 11/10/23 17/7/7 16/6/10 5/10/21
f 3/9/24 14/4/4 15/6/6 7/10/19
f 9/9/25 18/1/1 14/4/4 3/9/25
f 36/11/26 28/12/27 22/13/28 32/14/29
f 32/14/29 22/13/28 26/15/30 33/16/31
f 35/17/32 30/18/33 24/15/34 34/16/35
f 34/16/35 24/15/34 20/13/36 31/14/37
f 27/19/38 29/20/38 23/20/38 19/19/38
f 30/18/33 28/12/39 20/13/36 24/15/34
f 26/15/30 22/13/28 28/12/27 30/18/40
f 21/19/38 25/20/38 29/20/38 27/19/38
f 33/16/31 26/15/30 30/18/40 35/17/41
f 31/14/37 20/13/36 28/12/39 36/11/42
f 19/19/43 31/14/37 36/11/42 27/19/43
f 25/20/44 33/16/31 35/17/41 29/20/45
f 23/20/46 34/16/35 31/14/37 19/19/47
f 29/20/48 35/17/32 34/16/35 23/20/46
f 21/19/49 32/14/29 33/16/31 25/20/44
f 27/19/50 36/11/26 32/14/29 21/19/50
f 54/21/51 46/22/52 40/23/53 50/24/54
f 50/24/54 40/23/53 44/25/55 51/26/56
f 53/27/57 48/28/58 42/25/59 52/26/60
f 52/26/60 42/25/59 38/23/61 49/24/62
f 45/29/63 47/30/63 41/30/63 37/29/63
f 48/28/58 46/22/64 38/23/61 42/25/59
f 44/25/55 40/23/53 46/22/52 48/28/65
f 39/29/63 43/30/63 47/30/63 45/29/63
f 51/26/56 44/25/55 48/28/65 53/27/66
f 49/24/62 38/23/61 46/22/64 54/21/67
f 37/29/68 49/24/62 54/21/67 45/29/68
f 43/30/69 51/26/56 53/27/66 47/30/70
f 41/30/71 52/26/60 49/24/62 37/29/72
f 47/30/73 53/27/57 52/26/60 41/30/71
f 39/29/74 50/24/54 51/26/56 43/30/69
f 45/29/75 54/21/51 50/24/54 39/29/75
f 58/31/76 57/32/77 61/33/78 62/34/79
f 56/35/80 55/36/81 59/37/82 60/38/83
f 83/39/84 58/31/76 62/34/79
f 57/32/77 56/35/80 60/38/83 61/33/78
f 60/38/83 59/37/82 63/40/85 64/41/86
f 83/39/84 62/34/79 66/42/87
f 61/33/78 60/38/83 64/41/86 65/43/88
f 62/34/79 61/33/78 65/43/88 66/42/87
f 83/39/84 66/42/87 70/44/89
f 65/43/88 64/41/86 68/45/90 69/46/91
f 66/42/87 65/43/88 69/46/91 70/44/89
f 64/41/86 63/40/85 67/47/92 68/45/90
f 70/44/89 69/46/91 73/48/93 74/49/94
f 68/45/90 67/47/92 71/50/95 72/51/96
f 83/39/84 70/44/89 74/49/94
f 69/46/91 68/45/90 72/51/96 73/48/93
f 74/49/94 73/48/93 77/52/97 78/53/98
f 72/51/96 71/50/95 75/54/99 76/55/100
f 83/39/84 74/49/94 78/53/98
f 73/48/93 72/51/96 76/55/100 77/52/97
f 83/39/84 78/53/98 82/56/101
f 77/52/97 76/55/100 80/57/102 81/58/103
f 78/53/98 77/52/97 81/58/103 82/56/101
f 76/55/100 75/54/99 79/59/104 80/57/102
f 83/39/84 82/56/101 87/60/105
f 81/58/103 80/57/102 85/61/106 86/62/107
f 82/56/101 81/58/103 86/62/107 87/60/105
f 80/57/102 79/59/104 84/63/108 85/61/106
f 87/60/105 86/62/107 57/32/77 58/31/76
f 85/61/106 84/63/108 55/36/81 56/35/80
f 83/39/84 87/60/105 58/31/76
f 86/62/107 85/61/106 56/35/80 57/32/77
