# Blender 4.4.0
# www.blender.org
mtllib hydroelectric_dam.mtl
o hydroelectric_dam
v 3.973605 1.693582 -0.000000
v 3.862480 1.531352 2.920429
v 3.973605 -1.113994 -0.000000
v 3.862480 0.394525 2.920429
v -3.907114 1.693582 -0.000000
v -3.797673 1.531352 2.920429
v -3.907114 -1.113994 -0.000000
v -3.797673 0.394525 2.920429
v -2.743896 -1.734894 -0.000000
v -2.743896 -0.249915 2.920429
v -2.822994 1.693582 -0.000000
v -2.743896 1.531352 2.920429
v 2.747908 -1.734894 -0.000000
v 2.747908 1.531352 2.920429
v 2.747908 -0.249915 2.920429
v 2.826940 1.693582 -0.000000
v 3.305194 -1.568065 -0.000000
v 3.305194 1.531352 2.920429
v 3.305194 -0.083087 2.920429
v 3.400272 1.693582 -0.000000
v -3.270784 -0.083087 2.920429
v -3.365053 1.693582 -0.000000
v -3.270784 -1.568065 -0.000000
v -3.270784 1.531352 2.920429
v -2.039504 -0.249915 2.920429
v -2.098320 1.693582 -0.000000
v -2.098320 -1.776990 -0.000000
v -2.039504 1.531352 2.920429
v -1.182956 -1.776990 -0.000000
v -1.149759 1.531352 2.920429
v -1.149760 -0.249915 2.920429
v -1.182956 1.693582 -0.000000
v -0.516901 -1.776990 -0.000000
v -0.502346 1.531352 2.920429
v -0.502346 -0.249915 2.920429
v -0.516901 1.693582 -0.000000
v 0.439120 -1.776990 -0.000000
v 0.426918 1.531352 2.920429
v 0.426918 -0.249915 2.920429
v 0.439120 1.693582 -0.000000
v 1.130607 -1.776990 -0.000000
v 1.099051 1.531352 2.920429
v 1.099051 -0.249915 2.920429
v 1.130606 1.693582 -0.000000
v 2.088086 -1.776990 -0.000000
v 2.029734 1.531352 2.920429
v 2.029733 -0.249915 2.920429
v 2.088086 1.693582 -0.000000
v 3.862480 1.531352 2.641511
v 3.862480 0.252701 2.641511
v -3.797673 0.252701 2.641511
v -3.797673 1.531352 2.641511
v -2.743896 1.531352 2.641511
v 2.747908 1.531352 2.641511
v 3.305194 1.531352 2.641511
v -3.270784 1.531352 2.641511
v -2.039504 1.531352 2.641511
v -1.149760 -0.391739 2.641511
v -1.149759 1.531352 2.641511
v -0.502346 -0.391739 2.641511
v -0.502346 1.531352 2.641511
v 0.426918 1.531352 2.641511
v 1.099051 1.531352 2.641511
v 2.029734 1.531352 2.641511
v 3.862480 -0.779939 0.610672
v -3.797673 -0.779939 0.610672
v -3.797673 1.531352 0.610672
v -2.743896 1.531352 0.610672
v 2.747908 1.531352 0.610672
v 3.305194 1.531352 0.610672
v -3.270784 1.531352 0.610672
v -2.039504 1.531352 1.692238
v -2.039504 -1.424379 0.610672
v -1.149759 -1.424379 0.610672
v -1.149760 1.531352 1.692238
v -0.502346 1.531352 1.692238
v 0.426918 -1.424379 0.610672
v 0.426918 1.531352 1.692238
v 1.099051 1.531352 1.692238
v 2.029733 1.531352 1.692238
v 3.862480 1.531352 0.610672
v 2.029733 -0.391739 2.641511
v 1.099051 -0.391739 2.641511
v 0.426918 -0.391739 2.641511
v -2.039504 -0.391739 2.641511
v -0.502346 -1.424379 0.610672
v 1.099051 -1.424379 0.610672
v 2.029734 -1.424379 0.610672
v -2.391700 -0.249915 2.920429
v -2.460657 1.693582 -0.000000
v -2.391699 -1.734894 -0.000000
v -2.391699 1.531352 2.920429
v -2.391699 1.531352 2.641511
v -2.391700 1.531352 0.610672
v 2.388821 -1.734894 -0.000000
v 2.388821 1.531352 2.920429
v 2.388821 -0.249915 2.920429
v 2.457513 1.693582 -0.000000
v 2.388821 1.531352 2.641511
v 2.388821 1.531352 0.610672
v 3.687693 -1.188380 0.610672
v 3.793785 -1.534195 -0.000000
v 3.400272 -1.955800 -0.000000
v -3.270784 -0.423720 2.920429
v -3.622886 -0.013915 2.920429
v -3.622886 -1.188380 0.610672
v -3.727293 -1.534195 -0.000000
v -3.365053 -1.955800 -0.000000
v -2.822994 -2.197191 -0.000000
v -2.391700 -0.658355 2.920429
v -2.743896 -0.658355 2.920429
v -2.743896 -1.832819 0.610672
v 2.457514 -2.197191 -0.000000
v 2.826940 -2.197191 -0.000000
v 3.305194 -0.423720 2.920429
v 2.747908 -0.658355 2.920429
v 2.747908 -1.832819 0.610672
v 3.687693 -0.013915 2.920429
v 3.305194 -1.598184 0.610672
v -3.270784 -1.598184 0.610672
v -2.460656 -2.197191 -0.000000
v -2.098320 -2.197191 -0.000000
v -2.039504 -1.832819 0.610672
v 2.388821 -0.658355 2.920429
v 2.029733 -0.658355 2.920429
v 3.687693 -0.155739 2.641511
v -3.622886 -0.155739 2.641511
v -2.743896 -0.800179 2.641511
v 2.747908 -0.800179 2.641511
v 3.305194 -0.565544 2.641511
v -3.270784 -0.565544 2.641511
v -2.391699 -1.832819 0.610672
v 2.029733 -0.800179 2.641511
v 2.029734 -1.832819 0.610672
v 2.088086 -2.197191 -0.000000
v -2.039504 -0.658355 2.920429
v -2.039504 -0.800179 2.641511
v 2.388821 -0.800179 2.641511
v -2.391700 -0.800179 2.641511
v 2.388821 -1.832819 0.610672
v -0.502346 0.053486 1.692238
v 0.426918 0.569807 2.641511
v 0.426918 0.053486 1.692238
v -0.502346 0.569807 2.641511
v -2.039504 0.569807 2.641511
v -2.039504 0.053486 1.692238
v -1.149760 0.569807 2.641511
v -1.149760 0.053486 1.692238
v 2.029733 0.569807 2.641511
v 2.029733 0.053486 1.692238
v 1.099051 0.569807 2.641511
v 1.099051 0.053486 1.692238
v -0.502346 -0.685446 1.314106
v 0.426918 0.089034 2.641511
v 0.426918 -0.685446 1.314106
v -0.502346 0.089034 2.641511
v -2.039504 0.089034 2.641511
v -2.039504 -0.685446 1.314106
v -1.149760 0.089034 2.641511
v -1.149760 -0.685446 1.314106
v 2.029733 0.089034 2.641511
v 2.029733 -0.685446 1.314106
v 1.099051 0.089034 2.641511
v 1.099051 -0.685446 1.314106
v 3.973605 -0.584578 -0.000000
v 3.862480 0.617658 2.920429
v -3.907114 -0.584578 -0.000000
v -3.797673 0.617658 2.920429
v -2.743896 0.099706 2.920429
v -2.743896 -1.093805 -0.000000
v 2.747908 -1.093805 -0.000000
v 2.747908 0.099706 2.920429
v 3.305194 -0.959722 -0.000000
v 3.305194 0.233790 2.920429
v -3.270784 0.233790 2.920429
v -3.270784 -0.959722 -0.000000
v -2.039504 0.099706 2.920429
v -2.039504 -1.093805 -0.000000
v -1.149759 -1.093805 -0.000000
v -1.149760 0.099706 2.920429
v -0.502346 -1.093805 -0.000000
v -0.502346 0.099706 2.920429
v 0.426918 -1.093805 -0.000000
v 0.426918 0.099706 2.920429
v 1.099051 -1.093805 -0.000000
v 1.099051 0.099706 2.920429
v 2.029734 -1.093805 -0.000000
v 2.029733 0.099706 2.920429
v -3.797673 0.503671 2.641511
v 3.862480 0.503671 2.641511
v 3.862480 -0.326287 0.610672
v -3.797673 -0.326287 0.610672
v -2.391700 0.099706 2.920429
v -2.391699 -1.093805 -0.000000
v 2.388821 -1.093805 -0.000000
v 2.388821 0.099706 2.920429
v 3.973605 1.066300 -0.000000
v -3.797673 1.313452 2.920429
v -2.743896 1.189929 2.920429
v -2.743896 0.905296 -0.000000
v 2.747908 0.905296 -0.000000
v 2.747908 1.189929 2.920429
v 3.305194 0.937273 -0.000000
v 3.305194 1.221905 2.920429
v -3.270784 1.221905 2.920429
v -3.270784 0.937273 -0.000000
v -2.039504 1.189929 2.920429
v -2.039504 0.905296 -0.000000
v -1.149760 0.905296 -0.000000
v -1.149759 1.189929 2.920429
v -0.502346 0.905296 -0.000000
v -0.502346 1.189929 2.920429
v 0.426918 0.905296 -0.000000
v 0.426918 1.189929 2.920429
v 1.099051 0.905296 -0.000000
v 1.099051 1.189929 2.920429
v 2.029733 0.905296 -0.000000
v 2.029734 1.189929 2.920429
v -3.797673 1.286268 2.641511
v -3.797673 1.088337 0.610672
v -2.391699 1.189929 2.920429
v -2.391700 0.905296 -0.000000
v 2.388821 0.905296 -0.000000
v 2.388821 1.189929 2.920429
v 3.862480 1.313452 2.920429
v -3.907114 1.066300 -0.000000
v 3.862480 1.286268 2.641511
v 3.862480 1.088337 0.610672
v 2.029733 0.099706 3.151705
v 1.099051 0.099706 3.151705
v 0.426918 0.099706 3.151705
v -0.502346 0.099706 3.151705
v -1.149760 0.099706 3.151705
v -2.039504 0.099706 3.151705
v -2.039504 1.189929 3.151705
v -1.149759 1.189929 3.151705
v -0.502346 1.189929 3.151705
v 0.426918 1.189929 3.151705
v 1.099051 1.189929 3.151705
v 2.029734 1.189929 3.151705
v 2.243712 -3.141037 0.043907
v -2.197268 -3.141037 0.043908
v -2.197268 -2.038135 0.000361
v 2.243712 -2.038135 0.000361
v -2.197268 -1.329406 0.000361
v 2.243712 -1.329406 0.000361
v -2.197268 -3.141037 0.000361
v 2.243712 -3.141037 0.000361
v 2.243712 1.500257 1.844632
v -2.197268 1.500257 1.844632
v 2.243712 0.604844 1.846843
v -2.197268 0.604844 1.846843
v 2.243712 -0.441965 1.638620
v -2.197268 -0.441965 1.638620
v 2.243712 -1.329406 1.045651
v -2.197268 -1.329406 1.045651
v 2.243712 -2.038135 0.456435
v -2.197268 -2.038135 0.456436
v 2.243712 1.500257 1.576583
v -2.197268 1.500257 1.576583
v 3.973605 -1.104008 0.244939
v -3.907114 -1.104008 0.244939
v -3.907114 1.693582 0.244939
v -2.822994 1.693582 0.244939
v 2.826940 1.693582 0.244939
v 3.400272 1.693582 0.244939
v -3.365053 1.693582 0.244939
v -2.098320 1.693582 0.244939
v -2.098320 -1.767003 0.230310
v -1.182956 -1.767003 0.230310
v -1.182956 1.693582 0.244939
v -0.516901 1.693582 0.244939
v 0.439120 -1.767003 0.230310
v 0.439120 1.693582 0.244939
v 1.130606 1.693582 0.244939
v 2.088086 1.693582 0.244939
v 3.973605 1.693582 0.244939
v -0.516901 -1.767003 0.230310
v 1.130607 -1.767003 0.230310
v 2.088086 -1.767003 0.230310
v -2.460657 1.693582 0.244939
v 2.457513 1.693582 0.244939
v 3.793785 -1.524208 0.244939
v -3.727293 -1.524208 0.244939
v -2.822994 -2.187204 0.244939
v 2.826940 -2.187204 0.244939
v 3.400272 -1.945812 0.244939
v -3.365053 -1.945812 0.244939
v -2.098320 -2.187204 0.244939
v 2.088086 -2.187204 0.244939
v -2.460656 -2.187204 0.244939
v 2.457514 -2.187204 0.244939
v -3.907114 -0.592849 0.244939
v 3.973605 -0.592849 0.244939
v 3.973605 1.084130 0.244939
v -3.907114 1.084130 0.244939
v 3.862480 1.531352 0.244939
v 3.862480 -0.956863 0.244939
v -3.797673 -0.956863 0.244939
v -3.797673 1.531352 0.244939
v -2.743896 1.531352 0.244939
v 2.747908 1.531352 0.244939
v 3.305194 1.531352 0.244939
v -3.270784 1.531352 0.244939
v -2.039504 1.531352 0.244939
v -2.039504 -1.601303 0.259567
v -1.149759 -1.601303 0.259567
v -1.149760 1.531352 0.244939
v -0.502346 1.531352 0.244939
v 0.426918 -1.601303 0.259567
v 0.426918 1.531352 0.244939
v 1.099051 1.531352 0.244939
v 2.029733 1.531352 0.244939
v -0.502346 -1.601303 0.259567
v 1.099051 -1.601303 0.259567
v 2.029734 -1.601303 0.259567
v -2.391700 1.531352 0.244939
v 2.388821 1.531352 0.244939
v 3.687693 -1.365303 0.244939
v -3.622886 -1.365303 0.244939
v -2.743896 -2.009743 0.244939
v 2.747908 -2.009743 0.244939
v 3.305194 -1.775108 0.244939
v -3.270784 -1.775108 0.244939
v -2.039504 -2.009743 0.244939
v 2.029734 -2.009743 0.244939
v -2.391699 -2.009743 0.244939
v 2.388821 -2.009743 0.244939
v -3.797673 -0.468484 0.244939
v 3.862480 -0.468484 0.244939
v 3.862480 1.054425 0.244939
v -3.797673 1.054425 0.244939
vn 1.0000 -0.0000 -0.0000
vn 0.9873 -0.1416 0.0720
vn 0.9751 -0.1978 0.1006
vn -1.0000 -0.0000 -0.0000
vn -0.0000 1.0000 -0.0000
vn -0.0000 -0.0000 -1.0000
vn -0.0000 -0.0000 1.0000
vn -0.9806 -0.1958 0.0080
vn -0.9786 -0.2058 0.0084
vn -0.8468 -0.5314 0.0217
vn -0.8504 -0.5257 0.0214
vn -0.0000 -0.8914 0.4533
vn -0.0000 -0.8510 0.5251
vn 0.9598 -0.2527 0.1222
vn 0.9749 -0.1991 0.0994
vn 0.8100 -0.5253 0.2608
vn 0.7854 -0.5572 0.2695
vn -0.0000 -0.8930 0.4500
vn -0.0000 -0.8031 0.5959
vn -0.0000 -0.5785 0.8157
vn -0.9873 -0.1416 0.0720
vn -0.9751 -0.1978 0.1006
vn -0.8212 -0.5087 0.2586
vn -0.8428 -0.4797 0.2439
vn 0.8339 -0.4920 0.2502
vn 0.8092 -0.5237 0.2663
vn -0.5571 -0.7403 0.3764
vn -0.5858 -0.7224 0.3673
vn -0.1983 -0.8737 0.4443
vn -0.1878 -0.8755 0.4452
vn 0.5318 -0.7549 0.3838
vn 0.5585 -0.7394 0.3760
vn 0.1881 -0.8755 0.4452
vn 0.1786 -0.8771 0.4460
vn -0.0000 -0.8958 0.4444
vn -0.1885 -0.8800 0.4359
vn -0.5583 -0.7433 0.3685
vn 0.5331 -0.7580 0.3758
vn 0.1793 -0.8816 0.4367
vn -0.8220 -0.5101 0.2533
vn -0.5291 -0.7639 0.3695
vn -0.8008 -0.5391 0.2608
vn -0.0000 -0.9002 0.4355
vn -0.1781 -0.8858 0.4285
vn 0.5063 -0.7763 0.3755
vn 0.1699 -0.8871 0.4291
vn -0.9749 -0.1991 0.0994
vn -0.0000 -0.2343 0.9722
vn -0.9598 -0.2527 0.1222
vn -0.0000 -1.0000 -0.0000
vn -0.0000 0.0025 1.0000
vn -0.0000 -0.0968 0.9953
vn -0.0000 -0.3827 0.9239
vn -0.0000 -0.5982 0.8013
vn -0.0000 -0.5019 0.8649
vn -0.0000 -0.3503 0.9366
vn 0.1968 -0.9796 0.0399
vn 0.1988 -0.9792 0.0399
vn -0.0000 -0.9992 0.0407
vn -0.2067 -0.9776 0.0399
vn -0.2089 -0.9771 0.0398
vn -0.5996 -0.7996 0.0326
vn -0.5941 -0.8037 0.0328
vn 0.8355 -0.5490 0.0224
vn 0.8396 -0.5428 0.0221
vn 0.5744 -0.8179 0.0333
vn 0.5693 -0.8214 0.0335
vn -0.0000 -0.9991 0.0433
vn 0.9806 -0.1958 0.0080
vn 0.9786 -0.2058 0.0084
vn -0.2432 -0.0000 -0.9700
vn 0.2414 -0.0000 -0.9704
vn -0.0000 -0.1739 0.9848
vt 0.308860 0.936092
vt 0.308860 0.946399
vt 0.241137 0.936092
vt 0.241137 0.861049
vt 0.025804 0.936092
vt 0.025804 0.946399
vt 0.288267 0.936092
vt 0.288267 0.946399
vt 0.602318 0.783194
vt 0.622190 0.779164
vt 0.622190 0.763019
vt 0.605262 0.763019
vt 0.130040 0.804823
vt 0.123930 0.803819
vt 0.123930 0.801430
vt 0.130040 0.801430
vt 0.202148 0.804823
vt 0.196371 0.805173
vt 0.196371 0.801430
vt 0.202148 0.801430
vt 0.574865 0.784192
vt 0.585864 0.784192
vt 0.588334 0.763019
vt 0.577019 0.763019
vt 0.045273 0.936092
vt 0.045273 0.946399
vt 0.064743 0.946399
vt 0.064743 0.936092
vt 0.622190 0.846941
vt 0.622190 0.847253
vt 0.616575 0.860375
vt 0.616575 0.860063
vt 0.574865 0.866643
vt 0.565703 0.867957
vt 0.565703 0.881080
vt 0.577019 0.881080
vt 0.396957 0.783194
vt 0.414360 0.784192
vt 0.411892 0.763019
vt 0.393987 0.763019
vt 0.140089 0.805173
vt 0.136151 0.805173
vt 0.136151 0.801430
vt 0.140089 0.801430
vt 0.254406 0.936092
vt 0.254406 0.946399
vt 0.267675 0.946399
vt 0.267675 0.936092
vt 0.376083 0.779164
vt 0.376083 0.763019
vt 0.202148 0.819133
vt 0.207926 0.813895
vt 0.206009 0.818374
vt 0.202148 0.822868
vt 0.207926 0.803819
vt 0.207926 0.801430
vt 0.090771 0.936092
vt 0.090771 0.946399
vt 0.077757 0.936092
vt 0.077757 0.946399
vt 0.090771 0.946399
vt 0.090771 0.936092
vt 0.192509 0.805173
vt 0.188647 0.805173
vt 0.188647 0.801430
vt 0.192509 0.801430
vt 0.123649 0.936092
vt 0.123649 0.946399
vt 0.536081 0.784192
vt 0.563867 0.784192
vt 0.565703 0.763019
vt 0.537117 0.763019
vt 0.515863 0.784192
vt 0.516317 0.763019
vt 0.147572 0.936092
vt 0.147572 0.946399
vt 0.123649 0.946399
vt 0.178891 0.805173
vt 0.178891 0.801430
vt 0.181910 0.936092
vt 0.181910 0.946399
vt 0.486843 0.784192
vt 0.486462 0.763019
vt 0.147572 0.946399
vt 0.147572 0.936092
vt 0.171791 0.805173
vt 0.171791 0.801430
vt 0.465852 0.784192
vt 0.464867 0.763019
vt 0.206746 0.936092
vt 0.206746 0.946399
vt 0.181910 0.946399
vt 0.181910 0.936092
vt 0.161602 0.805173
vt 0.161602 0.801430
vt 0.241137 0.946399
vt 0.436788 0.784192
vt 0.434966 0.763019
vt 0.154232 0.805173
vt 0.154232 0.801430
vt 0.425574 0.784192
vt 0.423429 0.763019
vt 0.396957 0.861433
vt 0.376083 0.847253
vt 0.381698 0.860375
vt 0.393987 0.873541
vt 0.241137 0.946399
vt 0.241137 0.936092
vt 0.144026 0.805173
vt 0.144026 0.801430
vt 0.123649 0.887043
vt 0.123649 0.861049
vt 0.434966 0.867646
vt 0.434966 0.867957
vt 0.434966 0.881080
vt 0.434966 0.880768
vt 0.181910 0.901015
vt 0.206746 0.901015
vt 0.206746 0.861049
vt 0.181910 0.861049
vt 0.123649 0.901015
vt 0.147572 0.901015
vt 0.090771 0.887043
vt 0.090771 0.861049
vt 0.147572 0.861049
vt 0.077757 0.861049
vt 0.090771 0.901015
vt 0.140089 0.820962
vt 0.144026 0.820962
vt 0.144026 0.825441
vt 0.140089 0.825441
vt 0.025804 0.861049
vt 0.045273 0.861049
vt 0.267675 0.861049
vt 0.288267 0.861049
vt 0.136151 0.820962
vt 0.136151 0.825441
vt 0.254406 0.861049
vt 0.123930 0.813895
vt 0.130040 0.819133
vt 0.130040 0.822868
vt 0.125846 0.818374
vt 0.308860 0.848192
vt 0.308860 0.861049
vt 0.302401 0.861049
vt 0.302401 0.848192
vt 0.064743 0.861049
vt 0.425574 0.866643
vt 0.423429 0.881080
vt 0.308860 0.848192
vt 0.414360 0.866643
vt 0.411892 0.881080
vt 0.025804 0.848192
vt 0.025804 0.848192
vt 0.288267 0.848192
vt 0.045273 0.848192
vt 0.064743 0.848192
vt 0.585864 0.866643
vt 0.588334 0.881080
vt 0.254406 0.848192
vt 0.267675 0.848192
vt 0.192509 0.820962
vt 0.196371 0.820962
vt 0.196371 0.825441
vt 0.192509 0.825441
vt 0.188647 0.820962
vt 0.188647 0.825441
vt 0.077757 0.848192
vt 0.090771 0.865386
vt 0.123649 0.848192
vt 0.090771 0.848192
vt 0.147572 0.848192
vt 0.123649 0.865387
vt 0.181910 0.848192
vt 0.147572 0.865386
vt 0.206746 0.848192
vt 0.181910 0.865386
vt 0.241137 0.848192
vt 0.206746 0.865386
vt 0.602318 0.861433
vt 0.605262 0.873541
vt 0.241137 0.901015
vt 0.241137 0.865387
vt 0.147572 0.887043
vt 0.181910 0.887043
vt 0.241137 0.887043
vt 0.206746 0.887043
vt 0.032263 0.936092
vt 0.032263 0.946399
vt 0.090771 0.848192
vt 0.302401 0.946399
vt 0.302401 0.936092
vt 0.077757 0.936092
vt 0.077757 0.946399
vt 0.254406 0.936092
vt 0.254406 0.946399
vt 0.254406 0.861049
vt 0.077757 0.861049
vt 0.032263 0.861049
vt 0.045273 0.848192
vt 0.032263 0.848192
vt 0.077757 0.848192
vt 0.064743 0.848192
vt 0.288267 0.848192
vt 0.267675 0.848192
vt 0.254406 0.848192
vt 0.241137 0.848192
vt 0.181910 0.901015
vt 0.147572 0.901015
vt 0.090771 0.901015
vt 0.123649 0.901015
vt 0.206746 0.901015
vt 0.241137 0.901015
vt 0.140089 0.817128
vt 0.144026 0.817128
vt 0.425574 0.846622
vt 0.414360 0.846622
vt 0.574865 0.846622
vt 0.563867 0.846622
vt 0.192509 0.817128
vt 0.196371 0.817128
vt 0.025804 0.848192
vt 0.025804 0.848192
vt 0.154232 0.820962
vt 0.154232 0.817128
vt 0.436788 0.846622
vt 0.161602 0.820962
vt 0.161602 0.817128
vt 0.464867 0.867957
vt 0.465852 0.846622
vt 0.171791 0.820962
vt 0.171791 0.817128
vt 0.486462 0.867957
vt 0.486843 0.846622
vt 0.178891 0.820962
vt 0.178891 0.817128
vt 0.516317 0.867957
vt 0.515863 0.846622
vt 0.188647 0.817128
vt 0.537117 0.867957
vt 0.536081 0.846622
vt 0.602318 0.842435
vt 0.585864 0.846622
vt 0.202148 0.815658
vt 0.207926 0.811449
vt 0.130040 0.815658
vt 0.136151 0.817128
vt 0.396957 0.842435
vt 0.376083 0.830719
vt 0.123930 0.811449
vt 0.622190 0.830719
vt 0.925570 0.159494
vt 0.925570 0.209557
vt 0.884713 0.209557
vt 0.884713 0.159494
vt 0.781449 0.159494
vt 0.781449 0.209557
vt 0.738712 0.209557
vt 0.738712 0.159494
vt 0.854984 0.209557
vt 0.812313 0.209557
vt 0.812313 0.159494
vt 0.854984 0.159494
vt 0.555021 0.474959
vt 0.555021 0.443458
vt 0.555021 0.419076
vt 0.458672 0.421404
vt 0.458672 0.443458
vt 0.458672 0.419076
vt 0.458672 0.419076
vt 0.458672 0.474959
vt 0.555021 0.421404
vt 0.555021 0.517673
vt 0.458672 0.517673
vt 0.458672 0.517792
vt 0.555021 0.517792
vt 0.458672 0.506660
vt 0.555021 0.506660
vt 0.555021 0.503343
vt 0.458672 0.503343
vt 0.622190 0.830978
vt 0.622190 0.778607
vt 0.376083 0.778607
vt 0.376083 0.830978
vt 0.411892 0.880768
vt 0.423429 0.880768
vt 0.565703 0.880768
vt 0.577019 0.880768
vt 0.588334 0.880768
vt 0.605262 0.873230
vt 0.381698 0.860063
vt 0.393987 0.873230
vt 0.565703 0.867646
vt 0.464867 0.867646
vt 0.486462 0.867646
vt 0.516317 0.867646
vt 0.537117 0.867646
vt 0.376083 0.846941
vt 0.436788 0.862471
vt 0.436788 0.875226
vt 0.618773 0.842346
vt 0.613314 0.855101
vt 0.618773 0.827094
vt 0.618773 0.779535
vt 0.379553 0.764641
vt 0.379553 0.779535
vt 0.379553 0.827094
vt 0.414360 0.875226
vt 0.425574 0.875226
vt 0.563867 0.875226
vt 0.574865 0.875226
vt 0.585864 0.875226
vt 0.602318 0.867899
vt 0.385012 0.855101
vt 0.396957 0.867899
vt 0.436788 0.764641
vt 0.425574 0.764641
vt 0.563867 0.862471
vt 0.585864 0.764641
vt 0.574865 0.764641
vt 0.465852 0.764641
vt 0.486843 0.764641
vt 0.465852 0.862471
vt 0.515863 0.764641
vt 0.486843 0.862471
vt 0.536081 0.764641
vt 0.515863 0.862471
vt 0.563867 0.764641
vt 0.536081 0.862471
vt 0.618773 0.764641
vt 0.602318 0.764641
vt 0.414360 0.764641
vt 0.396957 0.764641
vt 0.379553 0.842346
s 1
usemtl base_material
f 190/1/1 166/2/1 4/2/2 50/1/3
f 82/3/4 88/4/4 134/4/4 133/3/4
f 219/5/4 198/6/4 6/6/4 52/5/4
f 55/7/5 18/8/5 2/2/5 49/1/5
f 206/9/6 226/10/6 5/11/6 22/12/6
f 204/13/7 225/14/7 2/15/7 18/16/7
f 205/17/7 199/18/7 12/19/7 24/20/7
f 222/21/6 200/22/6 11/23/6 90/24/6
f 56/25/5 24/26/5 12/27/5 53/28/5
f 262/29/8 7/30/9 107/31/10 284/32/11
f 91/33/6 27/34/6 122/35/6 121/36/6
f 203/37/6 201/38/6 16/39/6 20/40/6
f 224/41/7 202/42/7 14/43/7 96/44/7
f 99/45/5 96/46/5 14/47/5 54/48/5
f 197/49/6 203/37/6 20/40/6 1/50/6
f 21/51/7 8/52/7 105/53/7 104/54/7
f 202/42/7 204/13/7 18/16/7 14/43/7
f 54/48/5 14/47/5 18/8/5 55/7/5
f 52/5/5 6/6/5 24/26/5 56/25/5
f 198/55/7 205/17/7 24/20/7 6/56/7
f 200/22/6 206/9/6 22/12/6 11/23/6
f 85/57/1 25/58/1 136/58/1 137/57/1
f 93/59/5 92/60/5 28/61/5 57/62/5
f 221/63/7 207/64/7 28/65/7 92/66/7
f 58/67/12 31/68/12 25/58/12 85/57/12
f 209/69/6 208/70/6 26/71/6 32/72/6
f 211/73/6 209/69/6 32/72/6 36/74/6
f 60/75/12 35/76/12 31/68/12 58/67/12
f 57/62/5 28/61/5 30/77/5 59/67/5
f 207/64/7 210/78/7 30/79/7 28/65/7
f 84/80/12 39/81/12 35/76/12 60/75/12
f 213/82/6 211/73/6 36/74/6 40/83/6
f 59/67/5 30/77/5 34/84/5 61/85/5
f 210/78/7 212/86/7 34/87/7 30/79/7
f 215/88/6 213/82/6 40/83/6 44/89/6
f 83/90/12 43/91/12 39/81/12 84/80/12
f 61/85/5 34/84/5 38/92/5 62/93/5
f 212/86/7 214/94/7 38/95/7 34/87/7
f 82/3/12 47/96/12 43/91/12 83/90/12
f 217/97/6 215/88/6 44/89/6 48/98/6
f 62/93/5 38/92/5 42/91/5 63/90/5
f 214/94/7 216/99/7 42/100/7 38/95/7
f 223/101/6 217/97/6 48/98/6 98/102/6
f 17/103/6 3/104/6 102/105/6 103/106/6
f 63/90/5 42/91/5 46/107/5 64/108/5
f 216/99/7 218/109/7 46/110/7 42/100/7
f 160/111/4 74/112/4 58/67/4 159/67/4
f 280/113/4 45/114/4 135/115/4 290/116/4
f 78/117/5 62/93/5 63/90/5 79/118/5
f 157/57/6 159/67/6 58/67/6 85/57/6
f 87/119/13 83/90/12 84/80/12 77/120/13
f 75/121/5 59/67/5 61/85/5 76/122/5
f 158/123/1 157/57/1 85/57/1 73/124/1
f 86/125/13 60/75/12 58/67/12 74/112/13
f 94/126/5 93/59/5 57/62/5 72/127/5
f 97/128/7 47/129/7 125/130/7 124/131/7
f 67/132/5 52/5/5 56/25/5 71/133/5
f 69/134/5 54/48/5 55/7/5 70/135/5
f 15/136/7 97/128/7 124/131/7 116/137/7
f 100/138/5 99/45/5 54/48/5 69/134/5
f 4/139/7 19/140/7 115/141/7 118/142/7
f 298/143/14 65/144/15 101/145/16 319/146/17
f 71/133/5 56/25/5 53/28/5 68/147/5
f 70/135/5 55/7/5 49/1/5 81/144/5
f 220/132/4 219/5/4 52/5/4 67/132/4
f 45/114/6 95/148/6 113/149/6 135/115/6
f 191/144/1 190/1/1 50/1/3 65/144/15
f 330/150/1 191/144/1 65/144/15 298/143/14
f 13/151/6 17/103/6 103/106/6 114/152/6
f 332/153/4 220/132/4 67/132/4 300/154/4
f 303/155/5 70/135/5 81/144/5 297/143/5
f 304/156/5 71/133/5 68/147/5 301/157/5
f 9/158/6 91/33/6 121/36/6 109/159/6
f 73/124/1 85/57/1 137/57/1 123/124/1
f 318/160/5 100/138/5 69/134/5 302/161/5
f 89/162/7 10/163/7 111/164/7 110/165/7
f 302/161/5 69/134/5 70/135/5 303/155/5
f 300/154/5 67/132/5 71/133/5 304/156/5
f 25/166/7 89/162/7 110/165/7 136/167/7
f 317/168/5 94/126/5 72/127/5 305/169/5
f 307/170/18 74/112/13 73/124/19 306/171/18
f 314/172/18 86/125/13 74/112/13 307/170/18
f 305/169/5 72/127/5 75/121/5 308/173/5
f 310/174/18 77/120/13 86/125/13 314/172/18
f 308/173/5 75/121/5 76/122/5 309/175/5
f 315/176/18 87/119/13 77/120/13 310/174/18
f 309/175/5 76/122/5 78/117/5 311/177/5
f 316/178/18 88/4/19 87/119/13 315/176/18
f 311/177/5 78/117/5 79/118/5 312/179/5
f 23/180/6 9/158/6 109/159/6 108/181/6
f 312/179/5 79/118/5 80/182/5 313/183/5
f 156/75/6 154/80/6 84/80/6 60/75/6
f 153/184/20 86/125/13 77/120/13 155/185/20
f 158/123/20 73/124/19 74/112/13 160/111/20
f 153/184/1 156/75/1 60/75/1 86/125/1
f 155/185/4 77/120/4 84/80/4 154/80/4
f 162/186/4 88/4/4 82/3/4 161/3/4
f 164/187/1 163/90/1 83/90/1 87/119/1
f 163/90/6 161/3/6 82/3/6 83/90/6
f 164/187/20 87/119/13 88/4/19 162/186/20
f 301/157/5 68/147/5 94/126/5 317/168/5
f 7/30/6 23/180/6 108/181/6 107/31/6
f 8/6/21 51/5/22 127/188/23 105/189/24
f 68/147/5 53/28/5 93/59/5 94/126/5
f 199/18/7 221/63/7 92/66/7 12/19/7
f 53/28/5 12/27/5 92/60/5 93/59/5
f 306/171/1 73/124/1 123/124/1 325/190/1
f 208/70/6 222/21/6 90/24/6 26/71/6
f 50/1/3 4/2/2 118/191/25 126/192/26
f 313/183/5 80/182/5 100/138/5 318/160/5
f 80/182/5 64/108/5 99/45/5 100/138/5
f 10/163/7 21/51/7 104/54/7 111/164/7
f 19/140/7 15/136/7 116/137/7 115/141/7
f 201/38/6 223/101/6 98/102/6 16/39/6
f 64/108/5 46/107/5 96/46/5 99/45/5
f 218/109/7 224/41/7 96/44/7 46/110/7
f 131/25/27 104/26/28 105/189/24 127/188/23
f 139/193/12 110/194/12 111/27/29 128/28/30
f 130/7/31 115/8/32 116/47/33 129/48/34
f 126/192/26 118/191/25 115/8/32 130/7/31
f 128/28/30 111/27/29 104/26/28 131/25/27
f 138/195/12 124/196/12 125/96/12 133/3/12
f 140/197/35 138/195/12 133/3/12 134/4/35
f 112/147/36 128/28/30 131/25/27 120/133/37
f 101/145/16 126/192/26 130/7/31 119/135/38
f 119/135/38 130/7/31 129/48/34 117/134/39
f 132/198/35 139/193/12 128/28/30 112/147/36
f 120/133/37 131/25/27 127/188/23 106/199/40
f 324/200/41 120/133/37 106/199/40 320/201/42
f 327/202/43 132/198/35 112/147/36 321/203/44
f 323/204/45 119/135/38 117/134/39 322/205/46
f 319/146/17 101/145/16 119/135/38 323/204/45
f 321/203/44 112/147/36 120/133/37 324/200/41
f 328/206/43 140/197/35 134/4/35 326/207/43
f 325/190/43 123/124/35 132/198/35 327/202/43
f 123/124/35 137/57/12 139/193/12 132/198/35
f 137/57/12 136/58/12 110/194/12 139/193/12
f 322/205/46 117/134/39 140/197/35 328/206/43
f 117/134/39 129/48/34 138/195/12 140/197/35
f 129/48/34 116/47/33 124/196/12 138/195/12
f 65/144/15 50/1/3 126/192/26 101/145/16
f 95/148/6 13/151/6 114/152/6 113/149/6
f 51/5/22 66/132/47 106/199/40 127/188/23
f 47/96/4 82/3/4 133/3/4 125/96/4
f 78/117/4 143/208/4 142/80/4 62/93/4
f 76/122/1 61/85/1 144/85/1 141/209/1
f 76/122/7 141/209/48 143/208/48 78/117/7
f 61/85/6 62/93/6 142/80/6 144/85/6
f 72/127/7 146/210/48 148/211/48 75/121/7
f 72/127/1 57/62/1 145/57/1 146/210/1
f 57/62/6 59/67/6 147/67/6 145/57/6
f 75/121/4 148/211/4 147/67/4 59/67/4
f 79/118/7 152/212/48 150/213/48 80/182/7
f 63/90/6 64/108/6 149/3/6 151/90/6
f 79/118/1 63/90/1 151/90/1 152/212/1
f 80/182/4 150/213/4 149/3/4 64/108/4
f 143/208/4 155/185/4 154/80/4 142/80/4
f 141/209/1 144/85/1 156/75/1 153/184/1
f 141/209/48 153/184/20 155/185/20 143/208/48
f 144/85/6 142/80/6 154/80/6 156/75/6
f 146/210/48 158/123/20 160/111/20 148/211/48
f 146/210/1 145/57/1 157/57/1 158/123/1
f 145/57/6 147/67/6 159/67/6 157/57/6
f 148/211/4 160/111/4 159/67/4 147/67/4
f 152/212/48 164/187/20 162/186/20 150/213/48
f 151/90/6 149/3/6 161/3/6 163/90/6
f 152/212/1 151/90/1 163/90/1 164/187/1
f 150/213/4 162/186/4 161/3/4 149/3/4
f 47/129/7 97/128/7 196/214/7 188/215/7
f 13/151/6 95/148/6 195/216/6 171/217/6
f 27/34/6 91/33/6 194/218/6 178/219/6
f 10/163/7 89/162/7 193/220/7 169/221/7
f 299/222/49 66/132/47 192/132/4 329/223/4
f 331/150/1 228/144/1 191/144/1 330/150/1
f 228/144/1 227/1/1 190/1/1 191/144/1
f 66/132/47 51/5/22 189/5/4 192/132/4
f 43/224/7 47/129/7 188/215/7 186/225/7
f 95/148/6 45/114/6 187/226/6 195/216/6
f 39/227/7 43/224/7 186/225/7 184/228/7
f 45/114/6 41/229/6 185/230/6 187/226/6
f 35/231/7 39/227/7 184/228/7 182/232/7
f 41/229/6 37/233/6 183/234/6 185/230/6
f 31/235/7 35/231/7 182/232/7 180/236/7
f 37/233/6 33/237/6 181/238/6 183/234/6
f 25/166/7 31/235/7 180/236/7 177/239/7
f 33/237/6 29/240/6 179/241/6 181/238/6
f 29/240/6 27/34/6 178/219/6 179/241/6
f 89/162/7 25/166/7 177/239/7 193/220/7
f 9/158/6 23/180/6 176/242/6 170/243/6
f 8/52/7 21/51/7 175/244/7 168/245/7
f 15/136/7 19/140/7 174/246/7 172/247/7
f 3/104/6 17/103/6 173/248/6 165/249/6
f 97/128/7 15/136/7 172/247/7 196/214/7
f 17/103/6 13/151/6 171/217/6 173/248/6
f 91/33/6 9/158/6 170/243/6 194/218/6
f 21/51/7 10/163/7 169/221/7 175/244/7
f 19/140/7 4/139/7 166/250/7 174/246/7
f 23/180/6 7/30/6 167/251/6 176/242/6
f 51/5/22 8/6/21 168/6/4 189/5/4
f 227/1/1 225/2/1 166/2/1 190/1/1
f 49/1/1 2/2/1 225/2/1 227/1/1
f 81/144/1 49/1/1 227/1/1 228/144/1
f 297/143/1 81/144/1 228/144/1 331/150/1
f 188/215/7 196/214/7 224/41/7 218/109/7
f 171/217/6 195/216/6 223/101/6 201/38/6
f 178/219/6 194/218/6 222/21/6 208/70/6
f 169/221/7 193/220/7 221/63/7 199/18/7
f 329/223/4 192/132/4 220/132/4 332/153/4
f 192/132/4 189/5/4 219/5/4 220/132/4
f 207/252/4 177/253/4 234/253/4 235/252/4
f 195/216/6 187/226/6 217/97/6 223/101/6
f 184/228/7 186/225/7 216/99/7 214/94/7
f 187/226/6 185/230/6 215/88/6 217/97/6
f 180/254/1 210/255/1 236/255/1 233/254/1
f 185/230/6 183/234/6 213/82/6 215/88/6
f 180/236/7 182/232/7 212/86/7 210/78/7
f 183/234/6 181/238/6 211/73/6 213/82/6
f 216/256/4 186/257/4 230/257/4 239/256/4
f 181/238/6 179/241/6 209/69/6 211/73/6
f 179/241/6 178/219/6 208/70/6 209/69/6
f 193/220/7 177/239/7 207/64/7 221/63/7
f 170/243/6 176/242/6 206/9/6 200/22/6
f 168/245/7 175/244/7 205/17/7 198/55/7
f 172/247/7 174/246/7 204/13/7 202/42/7
f 165/249/6 173/248/6 203/37/6 197/49/6
f 196/214/7 172/247/7 202/42/7 224/41/7
f 173/248/6 171/217/6 201/38/6 203/37/6
f 194/218/6 170/243/6 200/22/6 222/21/6
f 175/244/7 169/221/7 199/18/7 205/17/7
f 174/246/7 166/250/7 225/14/7 204/13/7
f 176/242/6 167/251/6 226/10/6 206/9/6
f 189/5/4 168/6/4 198/6/4 219/5/4
f 230/257/7 229/258/7 240/259/7 239/256/7
f 232/260/7 231/261/7 238/262/7 237/263/7
f 234/253/7 233/254/7 236/255/7 235/252/7
f 186/257/50 188/258/50 229/258/50 230/257/50
f 184/261/1 214/262/1 238/262/1 231/261/1
f 218/259/5 216/256/5 239/256/5 240/259/5
f 182/260/50 184/261/50 231/261/50 232/260/50
f 188/258/1 218/259/1 240/259/1 229/258/1
f 214/262/5 212/263/5 237/263/5 238/262/5
f 177/253/50 180/254/50 233/254/50 234/253/50
f 210/255/5 207/252/5 235/252/5 236/255/5
f 212/263/4 182/260/4 232/260/4 237/263/4
f 255/264/1 257/265/1 244/266/1 246/266/1
f 242/267/4 258/268/4 243/269/4 247/270/4
f 258/268/4 256/271/4 245/269/4 243/269/4
f 257/265/1 241/272/1 248/266/1 244/266/1
f 241/272/50 242/267/50 247/270/50 248/266/50
f 249/273/51 250/274/51 252/275/52 251/276/52
f 251/276/52 252/275/52 254/277/53 253/278/53
f 253/278/53 254/277/53 256/271/54 255/264/54
f 255/264/54 256/271/54 258/268/55 257/265/55
f 257/265/55 258/268/55 242/267/56 241/272/56
f 250/274/5 249/273/5 259/279/5 260/280/5
f 167/251/4 293/281/4 296/282/4 226/10/4
f 1/50/1 277/50/1 295/283/1 197/49/1
f 197/49/1 295/283/1 294/284/1 165/249/1
f 7/30/9 262/29/8 293/281/4 167/251/4
f 114/152/57 286/285/58 292/286/59 113/149/59
f 122/35/59 289/287/59 291/288/59 121/36/59
f 113/149/59 292/286/59 290/116/59 135/115/59
f 109/159/60 285/289/61 288/290/62 108/181/63
f 102/105/64 283/291/65 287/292/66 103/106/67
f 103/106/67 287/292/66 286/285/58 114/152/57
f 121/36/59 291/288/59 285/289/61 109/159/60
f 108/181/63 288/290/62 284/32/11 107/31/10
f 48/98/5 276/98/5 282/102/5 98/102/5
f 27/34/1 269/293/1 289/287/1 122/35/1
f 11/23/5 264/23/5 281/24/5 90/24/5
f 44/89/5 275/89/5 276/98/5 48/98/5
f 40/83/5 274/83/5 275/89/5 44/89/5
f 45/114/68 280/113/68 279/294/68 41/229/68
f 36/74/5 272/74/5 274/83/5 40/83/5
f 41/229/68 279/294/68 273/295/68 37/233/68
f 32/72/5 271/72/5 272/74/5 36/74/5
f 37/233/68 273/295/68 278/296/68 33/237/68
f 26/71/5 268/71/5 271/72/5 32/72/5
f 33/237/68 278/296/68 270/297/68 29/240/68
f 29/240/68 270/297/68 269/293/68 27/34/68
f 90/24/5 281/24/5 268/71/5 26/71/5
f 5/11/5 263/11/5 267/12/5 22/12/5
f 16/39/5 265/39/5 266/40/5 20/40/5
f 98/102/5 282/102/5 265/39/5 16/39/5
f 22/12/5 267/12/5 264/23/5 11/23/5
f 20/40/5 266/40/5 277/50/5 1/50/5
f 226/10/4 296/282/4 263/11/4 5/11/4
f 165/249/1 294/284/1 261/298/69 3/104/70
f 3/104/70 261/298/69 283/291/65 102/105/64
f 316/299/71 280/113/71 290/116/71 326/300/71
f 299/301/7 262/29/7 284/32/7 320/302/7
f 66/132/47 299/222/49 320/201/42 106/199/40
f 88/4/4 316/178/4 326/207/4 134/4/4
f 293/281/7 329/303/7 332/304/7 296/282/7
f 277/50/7 297/305/7 331/306/7 295/283/7
f 295/283/7 331/306/7 330/307/7 294/284/7
f 262/29/7 299/301/7 329/303/7 293/281/7
f 286/285/7 322/308/7 328/309/7 292/286/7
f 289/287/7 325/310/7 327/311/7 291/288/7
f 292/286/7 328/309/7 326/300/7 290/116/7
f 285/289/7 321/312/7 324/313/7 288/290/7
f 283/291/7 319/314/7 323/315/7 287/292/7
f 287/292/7 323/315/7 322/308/7 286/285/7
f 291/288/7 327/311/7 321/312/7 285/289/7
f 288/290/7 324/313/7 320/302/7 284/32/7
f 276/98/7 313/316/7 318/317/7 282/102/7
f 269/293/72 306/318/72 325/310/72 289/287/72
f 264/23/7 301/319/7 317/320/7 281/24/7
f 275/89/7 312/321/7 313/316/7 276/98/7
f 274/83/7 311/322/7 312/321/7 275/89/7
f 280/113/73 316/299/73 315/323/73 279/294/73
f 272/74/7 309/324/7 311/322/7 274/83/7
f 279/294/73 315/323/73 310/325/73 273/295/73
f 271/72/7 308/326/7 309/324/7 272/74/7
f 273/295/73 310/325/73 314/327/73 278/296/73
f 268/71/7 305/328/7 308/326/7 271/72/7
f 278/296/73 314/327/73 307/329/73 270/297/73
f 270/297/73 307/329/73 306/318/73 269/293/73
f 281/24/7 317/320/7 305/328/7 268/71/7
f 263/11/7 300/330/7 304/331/7 267/12/7
f 265/39/7 302/332/7 303/333/7 266/40/7
f 282/102/7 318/317/7 302/332/7 265/39/7
f 267/12/7 304/331/7 301/319/7 264/23/7
f 266/40/7 303/333/7 297/305/7 277/50/7
f 296/282/7 332/304/7 300/330/7 263/11/7
f 294/284/7 330/307/7 298/334/7 261/298/7
f 261/298/7 298/334/7 319/314/7 283/291/7
