# Blender 4.4.0
# www.blender.org
mtllib windmill_base.mtl
o windmill_base
v 0.333548 0.221447 5.720505
v 0.333548 0.221447 6.716047
v 0.369950 -0.657234 5.720505
v 0.369950 -0.657234 6.716047
v -0.328507 0.221447 5.720505
v -0.328507 0.221447 6.716047
v -0.364909 -0.657234 5.720505
v -0.364909 -0.657234 6.716047
v 0.375068 0.221447 5.819834
v 0.416036 -0.657234 5.819834
v -0.410995 -0.657234 5.819834
v -0.370027 0.221447 5.819834
v 0.375068 0.221447 6.620538
v 0.416036 -0.657234 6.620538
v -0.410995 -0.657234 6.620538
v -0.370027 0.221447 6.620538
v 0.326110 -0.869924 5.893982
v 0.290046 -0.869924 5.816255
v -0.285006 -0.869924 5.816255
v 0.290046 -0.869924 6.620713
v -0.285006 -0.869924 6.620713
v -0.321070 -0.869924 5.893982
v 0.326110 -0.869924 6.545974
v -0.321070 -0.869924 6.545974
v 0.096506 1.150658 6.623139
v 0.091771 1.150658 6.638349
v -0.091465 1.150658 6.522885
v -0.086452 1.150658 6.506135
v 0.091493 1.150658 6.506135
v -0.086731 1.150658 6.638349
v 0.096506 1.150658 6.522885
v -0.091465 1.150658 6.623139
v 0.196098 1.026629 6.644462
v 0.174524 1.026629 6.713776
v -0.191058 1.026629 6.447411
v -0.169484 1.026629 6.375324
v 0.174524 1.026629 6.375324
v -0.169484 1.026629 6.713776
v 0.196098 1.026629 6.447411
v -0.191058 1.026629 6.644462
v -0.003151 -0.832339 -0.000000
v -0.003151 -0.712125 0.618952
v -0.437629 -0.652372 -0.000000
v -0.352626 -0.567368 0.618952
v -0.617596 -0.217894 -0.000000
v -0.497383 -0.217894 0.618952
v -0.437629 0.216584 -0.000000
v -0.352626 0.131581 0.618952
v -0.003151 0.396551 -0.000000
v -0.003151 0.276338 0.618952
v 0.431327 0.216584 -0.000000
v 0.346323 0.131581 0.618952
v 0.611294 -0.217894 -0.000000
v 0.491080 -0.217894 0.618952
v 0.431327 -0.652372 -0.000000
v 0.346323 -0.567368 0.618952
v -0.437629 -0.652372 0.546574
v -0.003151 -0.832339 0.546574
v -0.617596 -0.217894 0.546574
v -0.437629 0.216584 0.546574
v -0.003151 0.396551 0.546574
v 0.431327 0.216584 0.546574
v 0.611294 -0.217894 0.546574
v 0.431327 -0.652372 0.546574
v -0.235525 -0.450267 5.790533
v -0.003151 -0.546519 5.790533
v -0.331777 -0.217894 5.790533
v -0.235525 0.014480 5.790533
v -0.003151 0.110732 5.790533
v 0.229222 0.014480 5.790533
v 0.325475 -0.217894 5.790533
v 0.229222 -0.450267 5.790533
v -0.229511 0.853626 6.304862
v -0.229511 0.853626 6.639321
v 0.208692 0.853626 6.714264
v -0.203652 0.853626 6.714264
v 0.234552 0.853626 6.304862
v 0.234552 0.853626 6.639321
v -0.203652 0.853626 6.226922
v 0.208692 0.853626 6.226922
vn 0.9727 0.1246 0.1957
vn 0.9138 0.1159 0.3893
vn 0.8866 -0.2026 0.4157
vn 0.9536 -0.2000 0.2251
vn 0.9554 -0.1993 -0.2178
vn 0.8846 -0.4339 0.1707
vn 0.8865 -0.4323 -0.1650
vn -0.9536 -0.2000 0.2251
vn -0.8866 -0.2026 0.4157
vn -0.9138 0.1159 0.3893
vn -0.9727 0.1246 0.1957
vn 0.9636 0.2061 0.1703
vn 0.9341 0.3244 -0.1490
vn 0.8716 0.4780 -0.1091
vn 0.8940 0.4240 0.1449
vn -0.0000 -0.1880 -0.9822
vn -0.0000 0.3100 -0.9507
vn -0.0000 -0.1873 0.9823
vn -0.0000 0.0013 1.0000
vn -0.0000 0.0028 1.0000
vn -0.0000 0.2028 0.9792
vn -0.8931 -0.2007 -0.4026
vn -0.9554 -0.1993 -0.2178
vn -0.9535 0.2064 -0.2194
vn -0.9042 0.1994 -0.3778
vn -0.0000 -0.4105 -0.9119
vn 0.9042 0.1994 -0.3778
vn 0.9535 0.2064 -0.2194
vn 0.8931 -0.2007 -0.4026
vn -0.9341 0.3244 -0.1490
vn -0.9636 0.2061 0.1703
vn -0.8940 0.4240 0.1449
vn -0.8716 0.4780 -0.1091
vn -0.8014 -0.4685 -0.3718
vn -0.8865 -0.4323 -0.1650
vn -0.0000 -1.0000 -0.0000
vn -0.8846 -0.4339 0.1707
vn -0.7947 -0.4705 0.3835
vn -0.0000 -0.4090 0.9125
vn 0.8014 -0.4685 -0.3718
vn 0.7947 -0.4705 0.3835
vn -0.0000 1.0000 -0.0000
vn -0.2769 0.8977 -0.3426
vn -0.4440 0.8947 -0.0491
vn 0.4440 0.8947 -0.0491
vn 0.2769 0.8977 -0.3426
vn -0.8521 0.4241 -0.3066
vn -0.8230 0.5070 -0.2564
vn -0.9237 0.1894 0.3329
vn -0.8699 0.4061 0.2799
vn 0.8521 0.4241 -0.3066
vn 0.8230 0.5070 -0.2564
vn 0.9237 0.1894 0.3329
vn 0.8699 0.4061 0.2799
vn -0.0000 0.6370 -0.7709
vn -0.0000 0.6817 -0.7317
vn 0.7651 0.6338 0.1132
vn 0.7391 0.6331 0.2301
vn -0.0000 0.5196 0.8544
vn -0.7651 0.6338 0.1132
vn -0.7391 0.6331 0.2301
vn -0.7071 -0.7071 -0.0000
vn -1.0000 -0.0000 -0.0000
vn -0.7071 0.7071 -0.0000
vn 0.7071 0.7071 -0.0000
vn 1.0000 -0.0000 -0.0000
vn -0.7067 0.7067 0.0320
vn -0.9995 -0.0000 0.0320
vn 0.7071 -0.7071 -0.0000
vn -0.0000 -0.0000 -1.0000
vn -0.0000 -0.5158 0.8567
vn -0.3647 -0.3647 0.8567
vn -0.5158 -0.0000 0.8567
vn -0.3647 0.3647 0.8567
vn -0.0000 0.5158 0.8567
vn 0.3647 0.3647 0.8567
vn 0.5158 -0.0000 0.8567
vn 0.3647 -0.3647 0.8567
vn -0.0000 -0.0000 1.0000
vn -0.7067 -0.7067 0.0320
vn -0.0000 -0.9995 0.0320
vn 0.7067 -0.7067 0.0320
vn 0.9995 -0.0000 0.0320
vn 0.7067 0.7067 0.0320
vn -0.0000 0.9995 0.0320
vt 0.817128 0.232060
vt 0.816148 0.234313
vt 0.817007 0.234313
vt 0.818095 0.232060
vt 0.818095 0.215922
vt 0.815973 0.230300
vt 0.815973 0.217672
vt 0.798579 0.232060
vt 0.799666 0.234313
vt 0.800525 0.234313
vt 0.799545 0.232060
vt 0.200194 0.824241
vt 0.200194 0.769456
vt 0.228914 0.786385
vt 0.228914 0.825094
vt 0.817007 0.213578
vt 0.799666 0.213578
vt 0.800525 0.213578
vt 0.816148 0.213578
vt 0.200194 0.836682
vt 0.228914 0.836601
vt 0.798579 0.215922
vt 0.799545 0.215922
vt 0.815122 0.215838
vt 0.801552 0.215838
vt 0.817128 0.215922
vt 0.800701 0.217672
vt 0.815122 0.232064
vt 0.801552 0.232064
vt 0.800701 0.230300
vt 0.249505 0.821555
vt 0.249505 0.824079
vt 0.249505 0.796134
vt 0.249505 0.798915
vt 0.200194 0.756517
vt 0.228914 0.774418
vt 0.531065 0.798884
vt 0.531065 0.849899
vt 0.490512 0.849899
vt 0.490512 0.798884
vt 0.473715 0.849899
vt 0.473715 0.798884
vt 0.571617 0.849899
vt 0.571617 0.798884
vt 0.588414 0.849899
vt 0.588414 0.798884
vt 0.799956 0.093193
vt 0.796540 0.093193
vt 0.800448 0.215231
vt 0.802719 0.215231
vt 0.531065 0.856654
vt 0.498446 0.856654
vt 0.484935 0.856654
vt 0.563683 0.856654
vt 0.577194 0.856654
vt 0.808203 0.215231
vt 0.813686 0.215231
vt 0.815958 0.215231
vt 0.808203 0.093193
vt 0.816450 0.093193
vt 0.819866 0.093193
vt 0.803471 0.222876
vt 0.813202 0.222876
vt 0.813812 0.232503
vt 0.813202 0.234271
vt 0.813812 0.224715
vt 0.803471 0.234271
vt 0.802861 0.232503
vt 0.802861 0.224715
s 1
usemtl base_material
f 13/1/1 2/2/2 4/3/3 14/4/4
f 10/5/5 14/4/4 23/6/6 17/7/7
f 15/8/8 8/9/9 6/10/10 16/11/11
f 78/12/12 77/13/13 39/14/14 33/15/15
f 3/16/16 7/17/16 5/18/17 1/19/17
f 8/9/18 4/3/18 2/2/19 6/10/19
f 76/20/20 75/20/20 34/21/21 38/21/21
f 7/17/22 11/22/23 12/23/24 5/18/25
f 7/17/16 3/16/16 18/24/26 19/25/26
f 1/19/27 9/26/28 10/5/5 3/16/29
f 73/13/30 74/12/31 40/15/32 35/14/33
f 11/22/23 15/8/8 16/11/11 12/23/24
f 11/22/23 7/17/22 19/25/34 22/27/35
f 9/26/28 13/1/1 14/4/4 10/5/5
f 23/6/36 20/28/36 21/29/36 24/30/36
f 18/24/36 17/7/36 22/27/36 19/25/36
f 17/7/36 23/6/36 24/30/36 22/27/36
f 8/9/9 15/8/8 24/30/37 21/29/38
f 4/3/18 8/9/18 21/29/39 20/28/39
f 15/8/8 11/22/23 22/27/35 24/30/37
f 3/16/29 10/5/5 17/7/7 18/24/40
f 14/4/4 4/3/3 20/28/41 23/6/6
f 32/31/42 30/32/42 26/32/42 25/31/42
f 28/33/43 27/34/44 31/34/45 29/33/46
f 27/34/44 32/31/42 25/31/42 31/34/45
f 79/35/47 73/13/30 35/14/33 36/36/48
f 74/12/31 76/20/49 38/21/50 40/15/32
f 77/13/13 80/35/51 37/36/52 39/14/14
f 75/20/53 78/12/12 33/15/15 34/21/54
f 80/35/55 79/35/55 36/36/56 37/36/56
f 25/31/57 26/32/58 34/21/54 33/15/15
f 27/34/44 28/33/43 36/36/48 35/14/33
f 28/33/43 29/33/46 37/36/56 36/36/56
f 26/32/59 30/32/59 38/21/21 34/21/21
f 29/33/46 31/34/45 39/14/14 37/36/52
f 32/31/60 27/34/44 35/14/33 40/15/32
f 31/34/45 25/31/57 33/15/15 39/14/14
f 30/32/61 32/31/60 40/15/32 38/21/50
f 41/37/36 58/38/36 57/39/62 43/40/62
f 43/40/62 57/39/62 59/41/63 45/42/63
f 45/42/63 59/41/63 60/39/64 47/40/64
f 47/40/64 60/39/64 61/38/42 49/37/42
f 49/37/42 61/38/42 62/43/65 51/44/65
f 51/44/65 62/43/65 63/45/66 53/46/66
f 48/47/67 46/48/68 67/49/68 68/50/67
f 53/46/66 63/45/66 64/43/69 55/44/69
f 55/44/69 64/43/69 58/38/36 41/37/36
f 41/37/70 43/40/70 45/42/70 47/40/70 49/37/70 51/44/70 53/46/70 55/44/70
f 42/51/71 44/52/72 57/39/72 58/38/71
f 44/52/72 46/53/73 59/41/73 57/39/72
f 46/53/73 48/52/74 60/39/74 59/41/73
f 48/52/74 50/51/75 61/38/75 60/39/74
f 50/51/75 52/54/76 62/43/76 61/38/75
f 52/54/76 54/55/77 63/45/77 62/43/76
f 54/55/77 56/54/78 64/43/78 63/45/77
f 56/54/78 42/51/71 58/38/71 64/43/78
f 65/50/79 66/56/79 72/57/79 71/58/79 70/57/79 69/56/79 68/50/79 67/49/79
f 44/47/80 42/59/81 66/56/81 65/50/80
f 42/59/81 56/60/82 72/57/82 66/56/81
f 54/61/83 52/60/84 70/57/84 71/58/83
f 50/59/85 48/47/67 68/50/67 69/56/85
f 46/48/68 44/47/80 65/50/80 67/49/68
f 56/60/82 54/61/83 71/58/83 72/57/82
f 52/60/84 50/59/85 69/56/85 70/57/84
f 1/19/17 5/18/17 79/62/55 80/63/55
f 2/2/2 13/1/1 78/64/12 75/65/53
f 9/26/28 1/19/27 80/63/51 77/66/13
f 16/11/11 6/10/10 76/67/49 74/68/31
f 5/18/25 12/23/24 73/69/30 79/62/47
f 12/23/24 16/11/11 74/68/31 73/69/30
f 6/10/19 2/2/19 75/65/20 76/67/20
f 13/1/1 9/26/28 77/66/13 78/64/12
