# Blender 4.4.0
# www.blender.org
mtllib solarpanel.mtl
o solarpanels
v 1.629093 0.058220 2.077459
v 1.629093 -0.053044 2.294012
v 1.629093 -1.879653 1.081790
v 1.629093 -1.990917 1.298342
v 0.002434 0.058220 2.077459
v 0.002434 -0.053044 2.294012
v 0.002434 -1.879653 1.081790
v 0.002434 -1.990917 1.298342
v 1.403169 -1.879653 1.081790
v 1.403169 -1.990917 1.298342
v 1.403169 0.058220 2.077459
v 1.403169 -0.053044 2.294012
v 1.629093 -1.645395 1.202151
v 1.629093 -1.756658 1.418703
v 0.002434 -1.645395 1.202151
v 0.002434 -1.756658 1.418703
v 1.403169 -1.756658 1.418703
v 1.403169 -1.645395 1.202151
v 1.629093 0.015652 2.055588
v 0.002434 -0.095612 2.272141
v 1.403169 -0.095612 2.272141
v 1.403169 0.015652 2.055588
v 1.629093 -0.095612 2.272141
v 0.002434 0.015652 2.055588
v 0.765208 -1.990917 1.298342
v 0.765208 0.058220 2.077459
v 0.765208 -1.879653 1.081790
v 0.765208 -0.053044 2.294012
v 0.765208 -1.756658 1.418703
v 0.765208 -1.645395 1.202151
v 0.765208 -0.095612 2.272141
v 0.765208 0.015652 2.055588
v 0.657523 -1.990917 1.298342
v 0.657523 0.058220 2.077459
v 0.657523 -1.756658 1.418703
v 0.657523 -0.095612 2.272141
v 0.657523 -1.879653 1.081790
v 0.657523 -0.053044 2.294012
v 0.657523 -1.645395 1.202151
v 0.657523 0.015652 2.055588
v 1.629093 -1.228264 1.690189
v 0.002434 -1.117000 1.473637
v 1.629093 -1.117000 1.473637
v 0.002434 -1.228264 1.690189
v 1.403169 -1.228264 1.690189
v 1.403169 -1.117000 1.473637
v 0.765208 -1.117000 1.473637
v 0.765208 -1.228264 1.690189
v 0.657523 -1.228264 1.690189
v 0.657523 -1.117000 1.473637
v 1.629093 -1.038063 1.514194
v 0.002434 -1.149327 1.730747
v 1.403169 -1.149327 1.730747
v 1.403169 -1.038063 1.514194
v 0.765208 -1.038063 1.514194
v 0.765208 -1.149327 1.730747
v 0.657523 -1.149327 1.730747
v 0.657523 -1.038063 1.514194
v 1.629093 -1.149327 1.730747
v 0.002434 -1.038064 1.514194
v 1.629093 -0.540780 1.769696
v 0.002434 -0.652044 1.986248
v 1.403169 -0.652044 1.986248
v 1.403169 -0.540780 1.769696
v 0.765208 -0.540780 1.769696
v 0.765208 -0.652044 1.986248
v 0.657523 -0.652044 1.986248
v 0.657523 -0.540780 1.769696
v 1.629093 -0.652044 1.986248
v 0.002434 -0.540780 1.769696
v 1.629093 -0.458464 1.811990
v 0.002434 -0.569728 2.028542
v 1.403169 -0.569728 2.028542
v 1.403169 -0.458464 1.811990
v 0.765208 -0.458464 1.811990
v 0.765208 -0.569728 2.028542
v 0.657523 -0.569728 2.028542
v 0.657523 -0.458464 1.811990
v 1.629093 -0.569728 2.028542
v 0.002434 -0.458464 1.811989
v 0.057654 -1.990917 1.298342
v 0.057654 0.058220 2.077459
v 0.057654 -1.756658 1.418703
v 0.057654 -0.095612 2.272141
v 0.057654 -1.879653 1.081790
v 0.057654 -0.053044 2.294012
v 0.057654 -1.645395 1.202151
v 0.057654 0.015652 2.055588
v 0.057654 -1.228264 1.690189
v 0.057654 -1.117000 1.473637
v 0.057654 -1.149327 1.730747
v 0.057654 -1.038064 1.514194
v 0.057654 -0.652044 1.986248
v 0.057654 -0.540780 1.769696
v 0.057654 -0.569728 2.028542
v 0.057654 -0.458464 1.811989
v 1.403169 -0.549846 1.989847
v 1.403169 -0.075731 2.233445
v 1.403169 -1.736777 1.380008
v 0.765208 -1.736777 1.380008
v 0.765208 -0.075731 2.233445
v 0.765208 -0.549846 1.989847
v 0.657523 -0.549846 1.989847
v 0.657523 -0.075731 2.233445
v 1.403169 -1.208382 1.651495
v 0.765208 -1.208382 1.651495
v 0.657523 -1.736777 1.380008
v 0.657523 -1.208382 1.651495
v 1.403169 -1.129446 1.692052
v 0.765208 -1.129446 1.692052
v 1.403169 -0.632162 1.947554
v 0.765208 -0.632162 1.947554
v 0.657523 -1.129446 1.692052
v 0.657523 -0.632162 1.947554
v 0.057654 -1.736777 1.380008
v 0.057654 -0.075731 2.233445
v 0.057654 -1.208382 1.651495
v 0.057654 -1.129446 1.692052
v 0.057654 -0.632162 1.947554
v 0.057654 -0.549846 1.989847
v -1.624224 0.058220 2.077459
v -1.624224 -0.053044 2.294012
v -1.624224 -1.879653 1.081790
v -1.624224 -1.990917 1.298342
v -1.398300 -1.879653 1.081790
v -1.398300 -1.990917 1.298342
v -1.398300 0.058220 2.077459
v -1.398300 -0.053044 2.294012
v -1.624224 -1.645395 1.202151
v -1.624224 -1.756658 1.418703
v -1.398300 -1.756658 1.418703
v -1.398300 -1.645395 1.202151
v -1.624224 0.015652 2.055588
v -1.398300 -0.095612 2.272141
v -1.398300 0.015652 2.055588
v -1.624224 -0.095612 2.272141
v -0.760340 -1.990917 1.298342
v -0.760340 0.058220 2.077459
v -0.760340 -1.879653 1.081790
v -0.760340 -0.053044 2.294012
v -0.760340 -1.756658 1.418703
v -0.760340 -1.645395 1.202151
v -0.760340 -0.095612 2.272141
v -0.760340 0.015652 2.055588
v -0.652654 -1.990917 1.298342
v -0.652654 0.058220 2.077459
v -0.652654 -1.756658 1.418703
v -0.652654 -0.095612 2.272141
v -0.652654 -1.879653 1.081790
v -0.652654 -0.053044 2.294012
v -0.652654 -1.645395 1.202151
v -0.652654 0.015652 2.055588
v -1.624224 -1.228264 1.690189
v -1.624224 -1.117000 1.473637
v -1.398300 -1.228264 1.690189
v -1.398300 -1.117000 1.473637
v -0.760340 -1.117000 1.473637
v -0.760340 -1.228264 1.690189
v -0.652654 -1.228264 1.690189
v -0.652654 -1.117000 1.473637
v -1.624224 -1.038063 1.514194
v -1.398300 -1.149327 1.730747
v -1.398300 -1.038063 1.514194
v -0.760340 -1.038063 1.514194
v -0.760340 -1.149327 1.730747
v -0.652654 -1.149327 1.730747
v -0.652654 -1.038063 1.514194
v -1.624224 -1.149327 1.730747
v -1.624224 -0.540780 1.769696
v -1.398300 -0.652044 1.986248
v -1.398300 -0.540780 1.769696
v -0.760340 -0.540780 1.769696
v -0.760340 -0.652044 1.986248
v -0.652654 -0.652044 1.986248
v -0.652654 -0.540780 1.769696
v -1.624224 -0.652044 1.986248
v -1.624224 -0.458464 1.811990
v -1.398300 -0.569728 2.028542
v -1.398300 -0.458464 1.811990
v -0.760340 -0.458464 1.811990
v -0.760340 -0.569728 2.028542
v -0.652654 -0.569728 2.028542
v -0.652654 -0.458464 1.811990
v -1.624224 -0.569728 2.028542
v -0.052785 -1.990917 1.298342
v -0.052785 0.058220 2.077459
v -0.052785 -1.756658 1.418703
v -0.052785 -0.095612 2.272141
v -0.052785 -1.879653 1.081790
v -0.052785 -0.053044 2.294012
v -0.052785 -1.645395 1.202151
v -0.052785 0.015652 2.055588
v -0.052785 -1.228264 1.690189
v -0.052785 -1.117000 1.473637
v -0.052785 -1.149327 1.730747
v -0.052785 -1.038064 1.514194
v -0.052785 -0.652044 1.986248
v -0.052785 -0.540780 1.769696
v -0.052785 -0.569728 2.028542
v -0.052785 -0.458464 1.811989
v -1.398300 -0.549846 1.989847
v -1.398300 -0.075731 2.233445
v -1.398300 -1.736777 1.380008
v -0.760340 -1.736777 1.380008
v -0.760340 -0.075731 2.233445
v -0.760340 -0.549846 1.989847
v -0.652654 -0.549846 1.989847
v -0.652654 -0.075731 2.233445
v -1.398300 -1.208382 1.651495
v -0.760340 -1.208382 1.651495
v -0.652654 -1.736777 1.380008
v -0.652654 -1.208382 1.651495
v -1.398300 -1.129446 1.692052
v -0.760340 -1.129446 1.692052
v -1.398300 -0.632162 1.947554
v -0.760340 -0.632162 1.947554
v -0.652654 -1.129446 1.692052
v -0.652654 -0.632162 1.947554
v -0.052785 -1.736777 1.380008
v -0.052785 -0.075731 2.233445
v -0.052785 -1.208382 1.651495
v -0.052785 -1.129446 1.692052
v -0.052785 -0.632162 1.947554
v -0.052785 -0.549846 1.989847
v 1.629093 1.996093 3.073129
v 1.629093 1.884829 3.289681
v 0.002434 1.996093 3.073129
v 0.002434 1.884829 3.289681
v 1.403169 1.996093 3.073129
v 1.403169 1.884829 3.289681
v 1.629093 1.761834 2.952768
v 1.629093 1.650571 3.169320
v 0.002434 1.761834 2.952768
v 0.002434 1.650571 3.169320
v 1.403169 1.650571 3.169320
v 1.403169 1.761834 2.952768
v 1.629093 0.100788 2.099330
v 0.002434 -0.010476 2.315883
v 1.403169 -0.010476 2.315883
v 1.403169 0.100788 2.099330
v 1.629093 -0.010476 2.315883
v 0.002434 0.100788 2.099330
v 0.765208 1.884829 3.289681
v 0.765208 1.996093 3.073129
v 0.765208 1.650571 3.169320
v 0.765208 1.761834 2.952768
v 0.765208 -0.010476 2.315883
v 0.765208 0.100788 2.099330
v 0.657523 1.884829 3.289681
v 0.657523 1.650571 3.169320
v 0.657523 -0.010476 2.315883
v 0.657523 1.996093 3.073129
v 0.657523 1.761834 2.952768
v 0.657523 0.100788 2.099330
v 1.629093 1.122176 2.897834
v 0.002434 1.233440 2.681281
v 1.629093 1.233440 2.681281
v 0.002434 1.122176 2.897834
v 1.403169 1.122176 2.897834
v 1.403169 1.233440 2.681281
v 0.765208 1.233440 2.681281
v 0.765208 1.122176 2.897834
v 0.657523 1.122176 2.897834
v 0.657523 1.233440 2.681281
v 1.629093 1.154503 2.640724
v 0.002434 1.043239 2.857276
v 1.403169 1.043239 2.857276
v 1.403169 1.154503 2.640724
v 0.765208 1.154503 2.640724
v 0.765208 1.043239 2.857276
v 0.657523 1.043239 2.857276
v 0.657523 1.154503 2.640724
v 1.629093 1.043239 2.857276
v 0.002434 1.154503 2.640724
v 1.629093 0.657219 2.385222
v 0.002434 0.545956 2.601774
v 1.403169 0.545956 2.601774
v 1.403169 0.657219 2.385222
v 0.765208 0.657219 2.385222
v 0.765208 0.545956 2.601774
v 0.657523 0.545956 2.601774
v 0.657523 0.657219 2.385222
v 1.629093 0.545956 2.601775
v 0.002434 0.657220 2.385222
v 1.629093 0.574904 2.342929
v 0.002434 0.463640 2.559481
v 1.403169 0.463640 2.559481
v 1.403169 0.574904 2.342929
v 0.765208 0.574904 2.342929
v 0.765208 0.463640 2.559481
v 0.657523 0.463640 2.559481
v 0.657523 0.574904 2.342929
v 1.629093 0.463640 2.559481
v 0.002434 0.574904 2.342929
v 0.057654 1.884829 3.289681
v 0.057654 1.650571 3.169320
v 0.057654 -0.010476 2.315883
v 0.057654 1.996093 3.073129
v 0.057654 1.761834 2.952768
v 0.057654 0.100788 2.099330
v 0.057654 1.122176 2.897834
v 0.057654 1.233440 2.681281
v 0.057654 1.043239 2.857276
v 0.057654 1.154503 2.640724
v 0.057654 0.545956 2.601774
v 0.057654 0.657220 2.385222
v 0.057654 0.463640 2.559481
v 0.057654 0.574904 2.342929
v 1.403169 0.483521 2.520786
v 1.403169 0.009405 2.277188
v 1.403169 1.670452 3.130625
v 0.765208 1.670452 3.130625
v 0.765208 0.009405 2.277188
v 0.765208 0.483521 2.520786
v 0.657523 0.483521 2.520786
v 0.657523 0.009405 2.277188
v 1.403169 1.142057 2.859139
v 0.765208 1.142057 2.859139
v 0.657523 1.670452 3.130625
v 0.657523 1.142057 2.859139
v 1.403169 1.063121 2.818581
v 0.765208 1.063121 2.818581
v 1.403169 0.565837 2.563079
v 0.765208 0.565837 2.563079
v 0.657523 1.063121 2.818581
v 0.657523 0.565837 2.563079
v 0.057654 1.670452 3.130625
v 0.057654 0.009405 2.277188
v 0.057654 1.142057 2.859139
v 0.057654 1.063121 2.818581
v 0.057654 0.565837 2.563079
v 0.057654 0.483521 2.520786
v -1.624224 1.996093 3.073129
v -1.624224 1.884829 3.289681
v -1.398300 1.996093 3.073129
v -1.398300 1.884829 3.289681
v -1.624224 1.761834 2.952768
v -1.624224 1.650571 3.169320
v -1.398300 1.650571 3.169320
v -1.398300 1.761834 2.952768
v -1.624224 0.100788 2.099330
v -1.398300 -0.010476 2.315883
v -1.398300 0.100788 2.099330
v -1.624224 -0.010476 2.315883
v -0.760340 1.884829 3.289681
v -0.760340 1.996093 3.073129
v -0.760340 1.650571 3.169320
v -0.760340 1.761834 2.952768
v -0.760340 -0.010476 2.315883
v -0.760340 0.100788 2.099330
v -0.652654 1.884829 3.289681
v -0.652654 1.650571 3.169320
v -0.652654 -0.010476 2.315883
v -0.652654 1.996093 3.073129
v -0.652654 1.761834 2.952768
v -0.652654 0.100788 2.099330
v -1.624224 1.122176 2.897834
v -1.624224 1.233440 2.681281
v -1.398300 1.122176 2.897834
v -1.398300 1.233440 2.681281
v -0.760340 1.233440 2.681281
v -0.760340 1.122176 2.897834
v -0.652654 1.122176 2.897834
v -0.652654 1.233440 2.681281
v -1.624224 1.154503 2.640724
v -1.398300 1.043239 2.857276
v -1.398300 1.154503 2.640724
v -0.760340 1.154503 2.640724
v -0.760340 1.043239 2.857276
v -0.652654 1.043239 2.857276
v -0.652654 1.154503 2.640724
v -1.624224 1.043239 2.857276
v -1.624224 0.657219 2.385222
v -1.398300 0.545956 2.601774
v -1.398300 0.657219 2.385222
v -0.760340 0.657219 2.385222
v -0.760340 0.545956 2.601774
v -0.652654 0.545956 2.601774
v -0.652654 0.657219 2.385222
v -1.624224 0.545956 2.601775
v -1.624224 0.574904 2.342929
v -1.398300 0.463640 2.559481
v -1.398300 0.574904 2.342929
v -0.760340 0.574904 2.342929
v -0.760340 0.463640 2.559481
v -0.652654 0.463640 2.559481
v -0.652654 0.574904 2.342929
v -1.624224 0.463640 2.559481
v -0.052785 1.884829 3.289681
v -0.052785 1.650571 3.169320
v -0.052785 -0.010476 2.315883
v -0.052785 1.996093 3.073129
v -0.052785 1.761834 2.952768
v -0.052785 0.100788 2.099330
v -0.052785 1.122176 2.897834
v -0.052785 1.233440 2.681281
v -0.052785 1.043239 2.857276
v -0.052785 1.154503 2.640724
v -0.052785 0.545956 2.601774
v -0.052785 0.657220 2.385222
v -0.052785 0.463640 2.559481
v -0.052785 0.574904 2.342929
v -1.398300 0.483521 2.520786
v -1.398300 0.009405 2.277188
v -1.398300 1.670452 3.130625
v -0.760340 1.670452 3.130625
v -0.760340 0.009405 2.277188
v -0.760340 0.483521 2.520786
v -0.652654 0.483521 2.520786
v -0.652654 0.009405 2.277188
v -1.398300 1.142057 2.859139
v -0.760340 1.142057 2.859139
v -0.652654 1.670452 3.130625
v -0.652654 1.142057 2.859139
v -1.398300 1.063121 2.818581
v -0.760340 1.063121 2.818581
v -1.398300 0.565837 2.563079
v -0.760340 0.565837 2.563079
v -0.652654 1.063121 2.818581
v -0.652654 0.565837 2.563079
v -0.052785 1.670452 3.130625
v -0.052785 0.009405 2.277188
v -0.052785 1.142057 2.859139
v -0.052785 1.063121 2.818581
v -0.052785 0.565837 2.563079
v -0.052785 0.483521 2.520786
v 0.096874 0.330775 0.222467
v 0.096874 0.330775 1.579041
v 0.096874 -0.136688 0.222467
v 0.096874 -0.136687 1.579041
v -0.183281 0.330775 0.222467
v -0.183281 0.330775 1.579041
v -0.183281 -0.136688 0.222467
v -0.183281 -0.136687 1.579041
v 0.421057 0.629758 1.736328
v 0.421057 -0.435671 1.736328
v -0.507463 0.629758 1.736328
v -0.507463 -0.435671 1.736328
v 0.421057 0.629759 2.381512
v 0.421057 -0.435671 1.833221
v -0.507463 0.629759 2.381512
v -0.507463 -0.435671 1.833221
v 0.421809 0.805954 0.222467
v 0.421809 -0.611866 0.222467
v -0.508216 0.805954 0.222467
v -0.508216 -0.611866 0.222467
v 0.421809 0.805953 0.002148
v 0.421809 -0.611865 0.002143
v -0.508216 0.805956 0.002143
v -0.508216 -0.611865 0.002143
vn 1.0000 -0.0000 -0.0000
vn -0.0000 -0.8895 -0.4570
vn -1.0000 -0.0000 -0.0000
vn -0.0000 0.8895 0.4570
vn -0.0000 0.4570 -0.8895
vn -0.0000 -0.4570 0.8895
vn -0.0000 -1.0000 -0.0000
vn -0.0000 1.0000 -0.0000
vn -0.0000 -0.0000 1.0000
vn -0.0000 -0.4656 -0.8850
vn -0.4365 -0.0000 -0.8997
vn 0.4365 -0.0000 -0.8997
vn -0.0000 0.4656 -0.8850
vn -0.0000 -0.4576 0.8892
vn -0.0000 -0.0000 -1.0000
vt 0.098972 0.849576
vt 0.098972 0.852620
vt 0.098972 0.859031
vt 0.098972 0.855986
vt 0.151670 0.855986
vt 0.151670 0.859031
vt 0.153522 0.859031
vt 0.153522 0.855986
vt 0.153522 0.804123
vt 0.153522 0.807168
vt 0.153522 0.806003
vt 0.153522 0.802959
vt 0.106548 0.802959
vt 0.106548 0.806003
vt 0.098972 0.806003
vt 0.098972 0.802959
vt 0.151670 0.804123
vt 0.151670 0.802959
vt 0.106548 0.807168
vt 0.098972 0.807168
vt 0.127942 0.807168
vt 0.127942 0.806003
vt 0.098972 0.804123
vt 0.106548 0.804123
vt 0.127942 0.802959
vt 0.106548 0.859031
vt 0.106548 0.855986
vt 0.106548 0.849576
vt 0.127942 0.859031
vt 0.106548 0.852620
vt 0.127942 0.852620
vt 0.153522 0.849576
vt 0.151670 0.849576
vt 0.153522 0.852620
vt 0.098972 0.835117
vt 0.098972 0.838162
vt 0.098972 0.817097
vt 0.106548 0.817097
vt 0.127942 0.806624
vt 0.106548 0.806624
vt 0.106548 0.820141
vt 0.098972 0.820141
vt 0.151670 0.817097
vt 0.153522 0.817097
vt 0.153522 0.820141
vt 0.127942 0.817097
vt 0.127942 0.804123
vt 0.131553 0.820141
vt 0.127942 0.820141
vt 0.131553 0.807168
vt 0.127942 0.855986
vt 0.127942 0.849576
vt 0.131553 0.859031
vt 0.131553 0.852620
vt 0.131553 0.802959
vt 0.131553 0.806003
vt 0.151670 0.807168
vt 0.151670 0.806003
vt 0.151670 0.852620
vt 0.131553 0.822394
vt 0.151670 0.822394
vt 0.151670 0.821850
vt 0.131553 0.821850
vt 0.131553 0.817097
vt 0.131553 0.804123
vt 0.131553 0.855986
vt 0.131553 0.849576
vt 0.131553 0.835117
vt 0.127942 0.835117
vt 0.151670 0.836002
vt 0.151670 0.835458
vt 0.127942 0.838162
vt 0.131553 0.838162
vt 0.106548 0.835117
vt 0.153522 0.838162
vt 0.153522 0.835117
vt 0.151670 0.835117
vt 0.106548 0.838162
vt 0.131553 0.806624
vt 0.131553 0.819597
vt 0.098972 0.832957
vt 0.098972 0.836002
vt 0.098972 0.819349
vt 0.098972 0.822394
vt 0.131553 0.832957
vt 0.127942 0.832957
vt 0.151670 0.838162
vt 0.131553 0.836002
vt 0.127942 0.836002
vt 0.106548 0.832957
vt 0.153522 0.836002
vt 0.153522 0.832957
vt 0.151670 0.832957
vt 0.106548 0.836002
vt 0.131553 0.819349
vt 0.127942 0.819349
vt 0.106548 0.819597
vt 0.127942 0.822394
vt 0.106548 0.819349
vt 0.153522 0.822394
vt 0.153522 0.819349
vt 0.151670 0.819349
vt 0.106548 0.822394
vt 0.127942 0.837618
vt 0.106548 0.837618
vt 0.151670 0.820141
vt 0.126844 0.516534
vt 0.094304 0.516534
vt 0.094304 0.492350
vt 0.126844 0.492350
vt 0.162935 0.516534
vt 0.132337 0.516534
vt 0.132337 0.492350
vt 0.162935 0.492350
vt 0.162935 0.577076
vt 0.132337 0.577076
vt 0.132337 0.550124
vt 0.162935 0.550124
vt 0.126844 0.577076
vt 0.094304 0.577076
vt 0.094304 0.550124
vt 0.126844 0.550124
vt 0.162935 0.546098
vt 0.132337 0.546098
vt 0.132337 0.520732
vt 0.162935 0.520732
vt 0.126844 0.546098
vt 0.094304 0.546098
vt 0.094304 0.520732
vt 0.126844 0.520732
vt 0.127942 0.819597
vt 0.106548 0.852076
vt 0.106548 0.821850
vt 0.106548 0.835458
vt 0.151670 0.819597
vt 0.127942 0.821850
vt 0.151670 0.837618
vt 0.131553 0.837618
vt 0.151670 0.852076
vt 0.127942 0.852076
vt 0.151670 0.806624
vt 0.131553 0.852076
vt 0.127942 0.835458
vt 0.131553 0.835458
vt 0.208071 0.849576
vt 0.208071 0.855986
vt 0.208071 0.859031
vt 0.208071 0.852620
vt 0.155374 0.855986
vt 0.155374 0.859031
vt 0.200495 0.802959
vt 0.208071 0.802959
vt 0.208071 0.806003
vt 0.200495 0.806003
vt 0.155374 0.804123
vt 0.155374 0.802959
vt 0.200495 0.807168
vt 0.208071 0.807168
vt 0.179101 0.807168
vt 0.179101 0.806003
vt 0.208071 0.804123
vt 0.200495 0.804123
vt 0.179101 0.802959
vt 0.200495 0.855986
vt 0.200495 0.859031
vt 0.200495 0.849576
vt 0.179101 0.859031
vt 0.179101 0.852620
vt 0.200495 0.852620
vt 0.155374 0.849576
vt 0.208071 0.835117
vt 0.208071 0.838162
vt 0.208071 0.817097
vt 0.200495 0.817097
vt 0.200495 0.806624
vt 0.179101 0.806624
vt 0.200495 0.820141
vt 0.208071 0.820141
vt 0.155374 0.817097
vt 0.179101 0.804123
vt 0.179101 0.817097
vt 0.175490 0.820141
vt 0.175490 0.807168
vt 0.179101 0.820141
vt 0.179101 0.849576
vt 0.179101 0.855986
vt 0.175490 0.859031
vt 0.175490 0.852620
vt 0.175490 0.802959
vt 0.175490 0.806003
vt 0.155374 0.807168
vt 0.155374 0.806003
vt 0.155374 0.852620
vt 0.175490 0.822394
vt 0.175490 0.821850
vt 0.155374 0.821850
vt 0.155374 0.822394
vt 0.175490 0.804123
vt 0.175490 0.817097
vt 0.175490 0.849576
vt 0.175490 0.855986
vt 0.179101 0.835117
vt 0.175490 0.835117
vt 0.155374 0.835458
vt 0.155374 0.836002
vt 0.175490 0.838162
vt 0.179101 0.838162
vt 0.200495 0.835117
vt 0.155374 0.835117
vt 0.200495 0.838162
vt 0.175490 0.819597
vt 0.175490 0.806624
vt 0.208071 0.832957
vt 0.208071 0.836002
vt 0.208071 0.819349
vt 0.208071 0.822394
vt 0.179101 0.832957
vt 0.175490 0.832957
vt 0.155374 0.838162
vt 0.175490 0.836002
vt 0.179101 0.836002
vt 0.200495 0.832957
vt 0.155374 0.832957
vt 0.200495 0.836002
vt 0.179101 0.819349
vt 0.175490 0.819349
vt 0.200495 0.819597
vt 0.179101 0.822394
vt 0.200495 0.819349
vt 0.155374 0.819349
vt 0.200495 0.822394
vt 0.200495 0.837618
vt 0.179101 0.837618
vt 0.155374 0.820141
vt 0.204659 0.516534
vt 0.204659 0.492350
vt 0.237200 0.492350
vt 0.237200 0.516534
vt 0.168568 0.516534
vt 0.168568 0.492350
vt 0.199166 0.492350
vt 0.199166 0.516534
vt 0.168568 0.577076
vt 0.168568 0.550124
vt 0.199166 0.550124
vt 0.199166 0.577076
vt 0.204659 0.577076
vt 0.204659 0.550124
vt 0.237200 0.550124
vt 0.237200 0.577076
vt 0.168568 0.546098
vt 0.168568 0.520732
vt 0.199166 0.520732
vt 0.199166 0.546098
vt 0.204659 0.546098
vt 0.204659 0.520732
vt 0.237200 0.520732
vt 0.237200 0.546098
vt 0.179101 0.819597
vt 0.200495 0.852076
vt 0.200495 0.835458
vt 0.200495 0.821850
vt 0.155374 0.819597
vt 0.179101 0.821850
vt 0.175490 0.837618
vt 0.155374 0.837618
vt 0.155374 0.852076
vt 0.179101 0.852076
vt 0.155374 0.806624
vt 0.175490 0.852076
vt 0.179101 0.835458
vt 0.175490 0.835458
vt 0.098972 0.756341
vt 0.098972 0.749931
vt 0.098972 0.752976
vt 0.098972 0.759386
vt 0.151670 0.749931
vt 0.153522 0.749931
vt 0.153522 0.752976
vt 0.151670 0.752976
vt 0.153522 0.801794
vt 0.153522 0.804838
vt 0.151670 0.801794
vt 0.106548 0.804838
vt 0.098972 0.804838
vt 0.127942 0.804838
vt 0.098972 0.801794
vt 0.106548 0.801794
vt 0.106548 0.749931
vt 0.106548 0.752976
vt 0.106548 0.756341
vt 0.127942 0.752976
vt 0.127942 0.759386
vt 0.106548 0.759386
vt 0.151670 0.756341
vt 0.153522 0.756341
vt 0.153522 0.759386
vt 0.098972 0.770800
vt 0.098972 0.773845
vt 0.098972 0.788820
vt 0.106548 0.788820
vt 0.106548 0.804294
vt 0.127942 0.804294
vt 0.106548 0.791865
vt 0.098972 0.791865
vt 0.151670 0.788820
vt 0.153522 0.788820
vt 0.153522 0.791865
vt 0.127942 0.801794
vt 0.127942 0.788820
vt 0.131553 0.791865
vt 0.131553 0.804838
vt 0.127942 0.791865
vt 0.127942 0.756341
vt 0.127942 0.749931
vt 0.131553 0.752976
vt 0.131553 0.759386
vt 0.151670 0.804838
vt 0.151670 0.759386
vt 0.131553 0.789612
vt 0.131553 0.789068
vt 0.151670 0.789068
vt 0.151670 0.789612
vt 0.131553 0.801794
vt 0.131553 0.788820
vt 0.131553 0.756341
vt 0.131553 0.749931
vt 0.127942 0.770800
vt 0.131553 0.770800
vt 0.151670 0.775461
vt 0.151670 0.776005
vt 0.131553 0.773845
vt 0.127942 0.773845
vt 0.106548 0.770800
vt 0.153522 0.770800
vt 0.153522 0.773845
vt 0.151670 0.770800
vt 0.106548 0.773845
vt 0.131553 0.791321
vt 0.131553 0.804294
vt 0.098972 0.772960
vt 0.098972 0.776005
vt 0.098972 0.786568
vt 0.098972 0.789612
vt 0.127942 0.772960
vt 0.131553 0.772960
vt 0.151670 0.773845
vt 0.131553 0.776005
vt 0.127942 0.776005
vt 0.106548 0.772960
vt 0.153522 0.772960
vt 0.153522 0.776005
vt 0.151670 0.772960
vt 0.106548 0.776005
vt 0.127942 0.786568
vt 0.131553 0.786568
vt 0.106548 0.791321
vt 0.127942 0.789612
vt 0.106548 0.786568
vt 0.153522 0.786568
vt 0.153522 0.789612
vt 0.151670 0.786568
vt 0.106548 0.789612
vt 0.106548 0.773301
vt 0.127942 0.773301
vt 0.151670 0.791865
vt 0.126844 0.463824
vt 0.126844 0.488008
vt 0.094304 0.488008
vt 0.094304 0.463824
vt 0.162935 0.463824
vt 0.162935 0.488008
vt 0.132337 0.488008
vt 0.132337 0.463824
vt 0.162935 0.403282
vt 0.162935 0.430234
vt 0.132337 0.430234
vt 0.132337 0.403282
vt 0.126844 0.403282
vt 0.126844 0.430234
vt 0.094304 0.430234
vt 0.094304 0.403282
vt 0.162935 0.434260
vt 0.162935 0.459625
vt 0.132337 0.459625
vt 0.132337 0.434260
vt 0.126844 0.434260
vt 0.126844 0.459625
vt 0.094304 0.459625
vt 0.094304 0.434260
vt 0.127942 0.791321
vt 0.106548 0.758842
vt 0.106548 0.775461
vt 0.106548 0.789068
vt 0.151670 0.791321
vt 0.127942 0.789068
vt 0.131553 0.773301
vt 0.151670 0.773301
vt 0.151670 0.758842
vt 0.127942 0.758842
vt 0.151670 0.804294
vt 0.131553 0.758842
vt 0.127942 0.775461
vt 0.131553 0.775461
vt 0.208071 0.756341
vt 0.208071 0.759386
vt 0.208071 0.752976
vt 0.208071 0.749931
vt 0.155374 0.749931
vt 0.155374 0.752976
vt 0.155374 0.801794
vt 0.200495 0.804838
vt 0.208071 0.804838
vt 0.179101 0.804838
vt 0.208071 0.801794
vt 0.200495 0.801794
vt 0.200495 0.752976
vt 0.200495 0.749931
vt 0.200495 0.756341
vt 0.179101 0.752976
vt 0.200495 0.759386
vt 0.179101 0.759386
vt 0.155374 0.756341
vt 0.208071 0.770800
vt 0.208071 0.773845
vt 0.208071 0.788820
vt 0.200495 0.788820
vt 0.179101 0.804294
vt 0.200495 0.804294
vt 0.200495 0.791865
vt 0.208071 0.791865
vt 0.155374 0.788820
vt 0.179101 0.788820
vt 0.179101 0.801794
vt 0.175490 0.791865
vt 0.179101 0.791865
vt 0.175490 0.804838
vt 0.179101 0.749931
vt 0.179101 0.756341
vt 0.175490 0.752976
vt 0.175490 0.759386
vt 0.155374 0.804838
vt 0.155374 0.759386
vt 0.175490 0.789612
vt 0.155374 0.789612
vt 0.155374 0.789068
vt 0.175490 0.789068
vt 0.175490 0.788820
vt 0.175490 0.801794
vt 0.175490 0.749931
vt 0.175490 0.756341
vt 0.175490 0.770800
vt 0.179101 0.770800
vt 0.155374 0.776005
vt 0.155374 0.775461
vt 0.179101 0.773845
vt 0.175490 0.773845
vt 0.200495 0.770800
vt 0.155374 0.770800
vt 0.200495 0.773845
vt 0.175490 0.804294
vt 0.175490 0.791321
vt 0.208071 0.772960
vt 0.208071 0.776005
vt 0.208071 0.786568
vt 0.208071 0.789612
vt 0.175490 0.772960
vt 0.179101 0.772960
vt 0.155374 0.773845
vt 0.175490 0.776005
vt 0.179101 0.776005
vt 0.200495 0.772960
vt 0.155374 0.772960
vt 0.200495 0.776005
vt 0.175490 0.786568
vt 0.179101 0.786568
vt 0.200495 0.791321
vt 0.179101 0.789612
vt 0.200495 0.786568
vt 0.155374 0.786568
vt 0.200495 0.789612
vt 0.179101 0.773301
vt 0.200495 0.773301
vt 0.155374 0.791865
vt 0.204659 0.463824
vt 0.237200 0.463824
vt 0.237200 0.488008
vt 0.204659 0.488008
vt 0.168568 0.463824
vt 0.199166 0.463824
vt 0.199166 0.488008
vt 0.168568 0.488008
vt 0.168568 0.403282
vt 0.199166 0.403282
vt 0.199166 0.430234
vt 0.168568 0.430234
vt 0.204659 0.403282
vt 0.237200 0.403282
vt 0.237200 0.430234
vt 0.204659 0.430234
vt 0.168568 0.434260
vt 0.199166 0.434260
vt 0.199166 0.459625
vt 0.168568 0.459625
vt 0.204659 0.434260
vt 0.237200 0.434260
vt 0.237200 0.459625
vt 0.204659 0.459625
vt 0.179101 0.791321
vt 0.200495 0.758842
vt 0.200495 0.789068
vt 0.200495 0.775461
vt 0.155374 0.791321
vt 0.179101 0.789068
vt 0.155374 0.773301
vt 0.175490 0.773301
vt 0.155374 0.758842
vt 0.179101 0.758842
vt 0.155374 0.804294
vt 0.175490 0.758842
vt 0.179101 0.775461
vt 0.175490 0.775461
vt 0.466247 0.793786
vt 0.466247 0.867672
vt 0.533753 0.867672
vt 0.533753 0.793786
vt 0.612048 0.718681
vt 0.612048 0.942777
vt 0.388133 0.914928
vt 0.611867 0.914928
vt 0.611867 0.746530
vt 0.611867 0.746530
vt 0.388133 0.746530
vt 0.656732 0.609922
vt 0.371325 0.609922
vt 0.371325 0.342697
vt 0.656732 0.342697
vt 0.388133 0.746530
vt 0.387952 0.942777
vt 0.387952 0.718681
s 0
usemtl base_material
f 13/1/1 14/2/1 4/3/1 3/4/1
f 85/5/2 81/6/2 8/7/2 7/8/2
f 24/9/3 20/10/3 6/11/3 5/12/3
f 11/13/4 12/14/4 2/15/4 1/16/4
f 88/17/5 24/9/5 5/12/5 82/18/5
f 21/19/6 23/20/6 2/15/6 12/14/6
f 31/21/6 21/19/6 12/14/6 28/22/6
f 19/23/5 22/24/5 11/13/5 1/16/5
f 26/25/4 28/22/4 12/14/4 11/13/4
f 3/4/2 4/3/2 10/26/2 9/27/2
f 3/4/5 9/27/5 18/28/5 13/1/5
f 25/29/6 10/26/6 17/30/6 29/31/6
f 10/26/6 4/3/6 14/2/6 17/30/6
f 85/5/5 7/8/5 15/32/5 87/33/5
f 7/8/3 8/7/3 16/34/3 15/32/3
f 43/35/1 41/36/1 14/2/1 13/1/1
f 1/16/1 2/15/1 23/20/1 19/23/1
f 71/37/5 74/38/5 22/24/5 19/23/5
f 21/19/2 31/21/2 101/39/2 98/40/2
f 73/41/6 79/42/6 23/20/6 21/19/6
f 96/43/5 80/44/5 24/9/5 88/17/5
f 80/44/3 72/45/3 20/10/3 24/9/3
f 74/38/5 75/46/5 32/47/5 22/24/5
f 77/48/6 76/49/6 31/21/6 36/50/6
f 9/27/5 27/51/5 30/52/5 18/28/5
f 33/53/6 25/29/6 29/31/6 35/54/6
f 34/55/4 38/56/4 28/22/4 26/25/4
f 36/50/6 31/21/6 28/22/6 38/56/6
f 22/24/5 32/47/5 26/25/5 11/13/5
f 9/27/2 10/26/2 25/29/2 27/51/2
f 84/57/6 36/50/6 38/56/6 86/58/6
f 82/18/4 86/58/4 38/56/4 34/55/4
f 81/6/6 33/53/6 35/54/6 83/59/6
f 67/60/2 93/61/2 119/62/2 114/63/2
f 75/46/5 78/64/5 40/65/5 32/47/5
f 27/51/5 37/66/5 39/67/5 30/52/5
f 32/47/5 40/65/5 34/55/5 26/25/5
f 27/51/2 25/29/2 33/53/2 37/66/2
f 30/52/5 39/67/5 50/68/5 47/69/5
f 93/61/1 91/70/1 118/71/1 119/62/1
f 35/54/6 29/31/6 48/72/6 49/73/6
f 18/28/5 30/52/5 47/69/5 46/74/5
f 15/32/3 16/34/3 44/75/3 42/76/3
f 87/33/5 15/32/5 42/76/5 90/77/5
f 17/30/6 14/2/6 41/36/6 45/78/6
f 77/48/3 36/50/3 104/79/3 103/80/3
f 13/1/5 18/28/5 46/74/5 43/35/5
f 51/81/1 59/82/1 41/36/1 43/35/1
f 61/83/1 69/84/1 59/82/1 51/81/1
f 47/69/5 50/68/5 58/85/5 55/86/5
f 89/87/6 49/73/6 57/88/6 91/70/6
f 49/73/6 48/72/6 56/89/6 57/88/6
f 46/74/5 47/69/5 55/86/5 54/90/5
f 42/76/3 44/75/3 52/91/3 60/92/3
f 90/77/5 42/76/5 60/92/5 92/93/5
f 45/78/6 41/36/6 59/82/6 53/94/6
f 48/72/6 45/78/6 53/94/6 56/89/6
f 43/35/5 46/74/5 54/90/5 51/81/5
f 71/37/1 79/42/1 69/84/1 61/83/1
f 55/86/5 58/85/5 68/95/5 65/96/5
f 73/41/3 21/19/3 98/40/3 97/97/3
f 57/88/6 56/89/6 66/98/6 67/60/6
f 54/90/5 55/86/5 65/96/5 64/99/5
f 60/92/3 52/91/3 62/100/3 70/101/3
f 92/93/5 60/92/5 70/101/5 94/102/5
f 53/94/6 59/82/6 69/84/6 63/103/6
f 45/78/2 48/72/2 106/104/2 105/105/2
f 51/81/5 54/90/5 64/99/5 61/83/5
f 19/23/1 23/20/1 79/42/1 71/37/1
f 65/96/5 68/95/5 78/64/5 75/46/5
f 93/61/6 67/60/6 77/48/6 95/106/6
f 67/60/6 66/98/6 76/49/6 77/48/6
f 64/99/5 65/96/5 75/46/5 74/38/5
f 70/101/3 62/100/3 72/45/3 80/44/3
f 94/102/5 70/101/5 80/44/5 96/43/5
f 63/103/6 69/84/6 79/42/6 73/41/6
f 66/98/6 63/103/6 73/41/6 76/49/6
f 61/83/5 64/99/5 74/38/5 71/37/5
f 68/95/5 94/102/5 96/43/5 78/64/5
f 62/100/6 93/61/6 95/106/6 72/45/6
f 58/85/5 92/93/5 94/102/5 68/95/5
f 52/91/6 91/70/6 93/61/6 62/100/6
f 50/68/5 90/77/5 92/93/5 58/85/5
f 44/75/6 89/87/6 91/70/6 52/91/6
f 39/67/5 87/33/5 90/77/5 50/68/5
f 16/34/6 83/59/6 89/87/6 44/75/6
f 72/45/6 95/106/6 84/57/6 20/10/6
f 8/7/6 81/6/6 83/59/6 16/34/6
f 5/12/4 6/11/4 86/58/4 82/18/4
f 20/10/6 84/57/6 86/58/6 6/11/6
f 78/64/5 96/43/5 88/17/5 40/65/5
f 37/66/5 85/5/5 87/33/5 39/67/5
f 40/65/5 88/17/5 82/18/5 34/55/5
f 37/66/2 33/53/2 81/6/2 85/5/2
f 102/107/6 97/108/6 98/109/6 101/110/6
f 120/111/6 103/112/6 104/113/6 116/114/6
f 115/115/6 107/116/6 108/117/6 117/118/6
f 100/119/6 99/120/6 105/121/6 106/122/6
f 118/123/6 113/124/6 114/125/6 119/126/6
f 110/127/6 109/128/6 111/129/6 112/130/6
f 76/49/4 73/41/4 97/97/4 102/131/4
f 17/30/3 45/78/3 105/105/3 99/132/3
f 53/94/3 63/103/3 111/133/3 109/134/3
f 95/106/4 77/48/4 103/80/4 120/135/4
f 63/103/2 66/98/2 112/136/2 111/133/2
f 49/73/2 89/87/2 117/137/2 108/138/2
f 31/21/1 76/49/1 102/131/1 101/39/1
f 89/87/1 83/59/1 115/139/1 117/137/1
f 48/72/1 29/31/1 100/140/1 106/104/1
f 84/57/1 95/106/1 120/135/1 116/141/1
f 83/59/4 35/54/4 107/142/4 115/139/4
f 35/54/3 49/73/3 108/138/3 107/142/3
f 66/98/1 56/89/1 110/143/1 112/136/1
f 56/89/4 53/94/4 109/134/4 110/143/4
f 91/70/4 57/88/4 113/144/4 118/71/4
f 36/50/2 84/57/2 116/141/2 104/79/2
f 29/31/4 17/30/4 99/132/4 100/140/4
f 57/88/3 67/60/3 114/63/3 113/144/3
f 129/145/3 123/146/3 124/147/3 130/148/3
f 189/149/2 7/8/2 8/7/2 185/150/2
f 127/151/4 121/152/4 122/153/4 128/154/4
f 192/155/5 186/156/5 5/12/5 24/9/5
f 134/157/6 128/154/6 122/153/6 136/158/6
f 143/159/6 140/160/6 128/154/6 134/157/6
f 133/161/5 121/152/5 127/151/5 135/162/5
f 138/163/4 127/151/4 128/154/4 140/160/4
f 123/146/2 125/164/2 126/165/2 124/147/2
f 123/146/5 129/145/5 132/166/5 125/164/5
f 137/167/6 141/168/6 131/169/6 126/165/6
f 126/165/6 131/169/6 130/148/6 124/147/6
f 189/149/5 191/170/5 15/32/5 7/8/5
f 154/171/3 129/145/3 130/148/3 153/172/3
f 121/152/3 133/161/3 136/158/3 122/153/3
f 177/173/5 133/161/5 135/162/5 179/174/5
f 134/157/2 202/175/2 205/176/2 143/159/2
f 178/177/6 134/157/6 136/158/6 184/178/6
f 200/179/5 192/155/5 24/9/5 80/44/5
f 179/174/5 135/162/5 144/180/5 180/181/5
f 182/182/6 148/183/6 143/159/6 181/184/6
f 125/164/5 132/166/5 142/185/5 139/186/5
f 145/187/6 147/188/6 141/168/6 137/167/6
f 146/189/4 138/163/4 140/160/4 150/190/4
f 148/183/6 150/190/6 140/160/6 143/159/6
f 135/162/5 127/151/5 138/163/5 144/180/5
f 125/164/2 139/186/2 137/167/2 126/165/2
f 188/191/6 190/192/6 150/190/6 148/183/6
f 186/156/4 146/189/4 150/190/4 190/192/4
f 185/150/6 187/193/6 147/188/6 145/187/6
f 174/194/2 218/195/2 223/196/2 197/197/2
f 180/181/5 144/180/5 152/198/5 183/199/5
f 139/186/5 142/185/5 151/200/5 149/201/5
f 144/180/5 138/163/5 146/189/5 152/198/5
f 139/186/2 149/201/2 145/187/2 137/167/2
f 142/185/5 157/202/5 160/203/5 151/200/5
f 197/197/3 223/196/3 222/204/3 195/205/3
f 147/188/6 159/206/6 158/207/6 141/168/6
f 132/166/5 156/208/5 157/202/5 142/185/5
f 191/170/5 194/209/5 42/76/5 15/32/5
f 131/169/6 155/210/6 153/172/6 130/148/6
f 182/182/1 207/211/1 208/212/1 148/183/1
f 129/145/5 154/171/5 156/208/5 132/166/5
f 161/213/3 154/171/3 153/172/3 168/214/3
f 169/215/3 161/213/3 168/214/3 176/216/3
f 157/202/5 164/217/5 167/218/5 160/203/5
f 193/219/6 195/205/6 166/220/6 159/206/6
f 159/206/6 166/220/6 165/221/6 158/207/6
f 156/208/5 163/222/5 164/217/5 157/202/5
f 194/209/5 196/223/5 60/92/5 42/76/5
f 155/210/6 162/224/6 168/214/6 153/172/6
f 158/207/6 165/221/6 162/224/6 155/210/6
f 154/171/5 161/213/5 163/222/5 156/208/5
f 177/173/3 169/215/3 176/216/3 184/178/3
f 164/217/5 172/225/5 175/226/5 167/218/5
f 178/177/1 201/227/1 202/175/1 134/157/1
f 166/220/6 174/194/6 173/228/6 165/221/6
f 163/222/5 171/229/5 172/225/5 164/217/5
f 196/223/5 198/230/5 70/101/5 60/92/5
f 162/224/6 170/231/6 176/216/6 168/214/6
f 155/210/2 209/232/2 210/233/2 158/207/2
f 161/213/5 169/215/5 171/229/5 163/222/5
f 133/161/3 177/173/3 184/178/3 136/158/3
f 172/225/5 180/181/5 183/199/5 175/226/5
f 197/197/6 199/234/6 182/182/6 174/194/6
f 174/194/6 182/182/6 181/184/6 173/228/6
f 171/229/5 179/174/5 180/181/5 172/225/5
f 198/230/5 200/179/5 80/44/5 70/101/5
f 170/231/6 178/177/6 184/178/6 176/216/6
f 173/228/6 181/184/6 178/177/6 170/231/6
f 169/215/5 177/173/5 179/174/5 171/229/5
f 175/226/5 183/199/5 200/179/5 198/230/5
f 62/100/6 72/45/6 199/234/6 197/197/6
f 167/218/5 175/226/5 198/230/5 196/223/5
f 52/91/6 62/100/6 197/197/6 195/205/6
f 160/203/5 167/218/5 196/223/5 194/209/5
f 44/75/6 52/91/6 195/205/6 193/219/6
f 151/200/5 160/203/5 194/209/5 191/170/5
f 16/34/6 44/75/6 193/219/6 187/193/6
f 72/45/6 20/10/6 188/191/6 199/234/6
f 8/7/6 16/34/6 187/193/6 185/150/6
f 5/12/4 186/156/4 190/192/4 6/11/4
f 20/10/6 6/11/6 190/192/6 188/191/6
f 183/199/5 152/198/5 192/155/5 200/179/5
f 149/201/5 151/200/5 191/170/5 189/149/5
f 152/198/5 146/189/5 186/156/5 192/155/5
f 149/201/2 189/149/2 185/150/2 145/187/2
f 206/235/6 205/236/6 202/237/6 201/238/6
f 224/239/6 220/240/6 208/241/6 207/242/6
f 219/243/6 221/244/6 212/245/6 211/246/6
f 204/247/6 210/248/6 209/249/6 203/250/6
f 222/251/6 223/252/6 218/253/6 217/254/6
f 214/255/6 216/256/6 215/257/6 213/258/6
f 181/184/4 206/259/4 201/227/4 178/177/4
f 131/169/1 203/260/1 209/232/1 155/210/1
f 162/224/1 213/261/1 215/262/1 170/231/1
f 199/234/4 224/263/4 207/211/4 182/182/4
f 170/231/2 215/262/2 216/264/2 173/228/2
f 159/206/2 212/265/2 221/266/2 193/219/2
f 143/159/3 205/176/3 206/259/3 181/184/3
f 193/219/3 221/266/3 219/267/3 187/193/3
f 158/207/3 210/233/3 204/268/3 141/168/3
f 188/191/3 220/269/3 224/263/3 199/234/3
f 187/193/4 219/267/4 211/270/4 147/188/4
f 147/188/1 211/270/1 212/265/1 159/206/1
f 173/228/3 216/264/3 214/271/3 165/221/3
f 165/221/4 214/271/4 213/261/4 162/224/4
f 195/205/4 222/204/4 217/272/4 166/220/4
f 148/183/2 208/212/2 220/269/2 188/191/2
f 141/168/4 204/268/4 203/260/4 131/169/4
f 166/220/1 217/272/1 218/195/1 174/194/1
f 231/273/1 225/274/1 226/275/1 232/276/1
f 298/277/4 227/278/4 228/279/4 295/280/4
f 242/281/3 5/12/3 6/11/3 238/282/3
f 300/283/5 82/18/5 5/12/5 242/281/5
f 239/284/6 12/14/6 2/15/6 241/285/6
f 247/286/6 28/22/6 12/14/6 239/284/6
f 237/287/5 1/16/5 11/13/5 240/288/5
f 225/274/4 229/289/4 230/290/4 226/275/4
f 225/274/5 231/273/5 236/291/5 229/289/5
f 243/292/6 245/293/6 235/294/6 230/290/6
f 230/290/6 235/294/6 232/276/6 226/275/6
f 298/277/5 299/295/5 233/296/5 227/278/5
f 227/278/3 233/296/3 234/297/3 228/279/3
f 257/298/1 231/273/1 232/276/1 255/299/1
f 1/16/1 237/287/1 241/285/1 2/15/1
f 285/300/5 237/287/5 240/288/5 288/301/5
f 239/284/4 310/302/4 313/303/4 247/286/4
f 287/304/6 239/284/6 241/285/6 293/305/6
f 308/306/5 300/283/5 242/281/5 294/307/5
f 294/307/3 242/281/3 238/282/3 286/308/3
f 288/301/5 240/288/5 248/309/5 289/310/5
f 291/311/6 251/312/6 247/286/6 290/313/6
f 229/289/5 236/291/5 246/314/5 244/315/5
f 249/316/6 250/317/6 245/293/6 243/292/6
f 251/312/6 38/56/6 28/22/6 247/286/6
f 240/288/5 11/13/5 26/25/5 248/309/5
f 229/289/4 244/315/4 243/292/4 230/290/4
f 297/318/6 86/58/6 38/56/6 251/312/6
f 295/280/6 296/319/6 250/317/6 249/316/6
f 281/320/4 326/321/4 331/322/4 305/323/4
f 289/310/5 248/309/5 254/324/5 292/325/5
f 244/315/5 246/314/5 253/326/5 252/327/5
f 248/309/5 26/25/5 34/55/5 254/324/5
f 244/315/4 252/327/4 249/316/4 243/292/4
f 246/314/5 261/328/5 264/329/5 253/326/5
f 305/323/1 331/322/1 330/330/1 303/331/1
f 250/317/6 263/332/6 262/333/6 245/293/6
f 236/291/5 260/334/5 261/328/5 246/314/5
f 233/296/3 256/335/3 258/336/3 234/297/3
f 299/295/5 302/337/5 256/335/5 233/296/5
f 235/294/6 259/338/6 255/299/6 232/276/6
f 291/311/3 315/339/3 316/340/3 251/312/3
f 231/273/5 257/298/5 260/334/5 236/291/5
f 265/341/1 257/298/1 255/299/1 273/342/1
f 275/343/1 265/341/1 273/342/1 283/344/1
f 261/328/5 269/345/5 272/346/5 264/329/5
f 301/347/6 303/331/6 271/348/6 263/332/6
f 263/332/6 271/348/6 270/349/6 262/333/6
f 260/334/5 268/350/5 269/345/5 261/328/5
f 256/335/3 274/351/3 266/352/3 258/336/3
f 302/337/5 304/353/5 274/351/5 256/335/5
f 259/338/6 267/354/6 273/342/6 255/299/6
f 262/333/6 270/349/6 267/354/6 259/338/6
f 257/298/5 265/341/5 268/350/5 260/334/5
f 285/300/1 275/343/1 283/344/1 293/305/1
f 269/345/5 279/355/5 282/356/5 272/346/5
f 287/304/3 309/357/3 310/302/3 239/284/3
f 271/348/6 281/320/6 280/358/6 270/349/6
f 268/350/5 278/359/5 279/355/5 269/345/5
f 274/351/3 284/360/3 276/361/3 266/352/3
f 304/353/5 306/362/5 284/360/5 274/351/5
f 267/354/6 277/363/6 283/344/6 273/342/6
f 259/338/4 317/364/4 318/365/4 262/333/4
f 265/341/5 275/343/5 278/359/5 268/350/5
f 237/287/1 285/300/1 293/305/1 241/285/1
f 279/355/5 289/310/5 292/325/5 282/356/5
f 305/323/6 307/366/6 291/311/6 281/320/6
f 281/320/6 291/311/6 290/313/6 280/358/6
f 278/359/5 288/301/5 289/310/5 279/355/5
f 284/360/3 294/307/3 286/308/3 276/361/3
f 306/362/5 308/306/5 294/307/5 284/360/5
f 277/363/6 287/304/6 293/305/6 283/344/6
f 280/358/6 290/313/6 287/304/6 277/363/6
f 275/343/5 285/300/5 288/301/5 278/359/5
f 282/356/5 292/325/5 308/306/5 306/362/5
f 276/361/6 286/308/6 307/366/6 305/323/6
f 272/346/5 282/356/5 306/362/5 304/353/5
f 266/352/6 276/361/6 305/323/6 303/331/6
f 264/329/5 272/346/5 304/353/5 302/337/5
f 258/336/6 266/352/6 303/331/6 301/347/6
f 253/326/5 264/329/5 302/337/5 299/295/5
f 234/297/6 258/336/6 301/347/6 296/319/6
f 286/308/6 238/282/6 297/318/6 307/366/6
f 228/279/6 234/297/6 296/319/6 295/280/6
f 238/282/6 6/11/6 86/58/6 297/318/6
f 292/325/5 254/324/5 300/283/5 308/306/5
f 252/327/5 253/326/5 299/295/5 298/277/5
f 254/324/5 34/55/5 82/18/5 300/283/5
f 252/327/4 298/277/4 295/280/4 249/316/4
f 314/367/6 313/368/6 310/369/6 309/370/6
f 332/371/6 328/372/6 316/373/6 315/374/6
f 327/375/6 329/376/6 320/377/6 319/378/6
f 312/379/6 318/380/6 317/381/6 311/382/6
f 330/383/6 331/384/6 326/385/6 325/386/6
f 322/387/6 324/388/6 323/389/6 321/390/6
f 290/313/2 314/391/2 309/357/2 287/304/2
f 235/294/3 311/392/3 317/364/3 259/338/3
f 267/354/3 321/393/3 323/394/3 277/363/3
f 307/366/2 332/395/2 315/339/2 291/311/2
f 277/363/4 323/394/4 324/396/4 280/358/4
f 263/332/4 320/397/4 329/398/4 301/347/4
f 247/286/1 313/303/1 314/391/1 290/313/1
f 301/347/1 329/398/1 327/399/1 296/319/1
f 262/333/1 318/365/1 312/400/1 245/293/1
f 297/318/1 328/401/1 332/395/1 307/366/1
f 296/319/2 327/399/2 319/402/2 250/317/2
f 250/317/3 319/402/3 320/397/3 263/332/3
f 280/358/1 324/396/1 322/403/1 270/349/1
f 270/349/2 322/403/2 321/393/2 267/354/2
f 303/331/2 330/330/2 325/404/2 271/348/2
f 251/312/4 316/340/4 328/401/4 297/318/4
f 245/293/2 312/400/2 311/392/2 235/294/2
f 271/348/3 325/404/3 326/321/3 281/320/3
f 337/405/3 338/406/3 334/407/3 333/408/3
f 392/409/4 389/410/4 228/279/4 227/278/4
f 394/411/5 242/281/5 5/12/5 186/156/5
f 342/412/6 344/413/6 122/153/6 128/154/6
f 349/414/6 342/412/6 128/154/6 140/160/6
f 341/415/5 343/416/5 127/151/5 121/152/5
f 333/408/4 334/407/4 336/417/4 335/418/4
f 333/408/5 335/418/5 340/419/5 337/405/5
f 345/420/6 336/417/6 339/421/6 347/422/6
f 336/417/6 334/407/6 338/406/6 339/421/6
f 392/409/5 227/278/5 233/296/5 393/423/5
f 358/424/3 357/425/3 338/406/3 337/405/3
f 121/152/3 122/153/3 344/413/3 341/415/3
f 381/426/5 383/427/5 343/416/5 341/415/5
f 342/412/4 349/414/4 407/428/4 404/429/4
f 382/430/6 388/431/6 344/413/6 342/412/6
f 402/432/5 294/307/5 242/281/5 394/411/5
f 383/427/5 384/433/5 350/434/5 343/416/5
f 386/435/6 385/436/6 349/414/6 353/437/6
f 335/418/5 346/438/5 348/439/5 340/419/5
f 351/440/6 345/420/6 347/422/6 352/441/6
f 353/437/6 349/414/6 140/160/6 150/190/6
f 343/416/5 350/434/5 138/163/5 127/151/5
f 335/418/4 336/417/4 345/420/4 346/438/4
f 391/442/6 353/437/6 150/190/6 190/192/6
f 389/410/6 351/440/6 352/441/6 390/443/6
f 378/444/4 399/445/4 425/446/4 420/447/4
f 384/433/5 387/448/5 356/449/5 350/434/5
f 346/438/5 354/450/5 355/451/5 348/439/5
f 350/434/5 356/449/5 146/189/5 138/163/5
f 346/438/4 345/420/4 351/440/4 354/450/4
f 348/439/5 355/451/5 364/452/5 361/453/5
f 399/445/3 397/454/3 424/455/3 425/446/3
f 352/441/6 347/422/6 362/456/6 363/457/6
f 340/419/5 348/439/5 361/453/5 360/458/5
f 393/423/5 233/296/5 256/335/5 396/459/5
f 339/421/6 338/406/6 357/425/6 359/460/6
f 386/435/1 353/437/1 410/461/1 409/462/1
f 337/405/5 340/419/5 360/458/5 358/424/5
f 365/463/3 372/464/3 357/425/3 358/424/3
f 373/465/3 380/466/3 372/464/3 365/463/3
f 361/453/5 364/452/5 371/467/5 368/468/5
f 395/469/6 363/457/6 370/470/6 397/454/6
f 363/457/6 362/456/6 369/471/6 370/470/6
f 360/458/5 361/453/5 368/468/5 367/472/5
f 396/459/5 256/335/5 274/351/5 398/473/5
f 359/460/6 357/425/6 372/464/6 366/474/6
f 362/456/6 359/460/6 366/474/6 369/471/6
f 358/424/5 360/458/5 367/472/5 365/463/5
f 381/426/3 388/431/3 380/466/3 373/465/3
f 368/468/5 371/467/5 379/475/5 376/476/5
f 382/430/1 342/412/1 404/429/1 403/477/1
f 370/470/6 369/471/6 377/478/6 378/444/6
f 367/472/5 368/468/5 376/476/5 375/479/5
f 398/473/5 274/351/5 284/360/5 400/480/5
f 366/474/6 372/464/6 380/466/6 374/481/6
f 359/460/4 362/456/4 412/482/4 411/483/4
f 365/463/5 367/472/5 375/479/5 373/465/5
f 341/415/3 344/413/3 388/431/3 381/426/3
f 376/476/5 379/475/5 387/448/5 384/433/5
f 399/445/6 378/444/6 386/435/6 401/484/6
f 378/444/6 377/478/6 385/436/6 386/435/6
f 375/479/5 376/476/5 384/433/5 383/427/5
f 400/480/5 284/360/5 294/307/5 402/432/5
f 374/481/6 380/466/6 388/431/6 382/430/6
f 377/478/6 374/481/6 382/430/6 385/436/6
f 373/465/5 375/479/5 383/427/5 381/426/5
f 379/475/5 400/480/5 402/432/5 387/448/5
f 276/361/6 399/445/6 401/484/6 286/308/6
f 371/467/5 398/473/5 400/480/5 379/475/5
f 266/352/6 397/454/6 399/445/6 276/361/6
f 364/452/5 396/459/5 398/473/5 371/467/5
f 258/336/6 395/469/6 397/454/6 266/352/6
f 355/451/5 393/423/5 396/459/5 364/452/5
f 234/297/6 390/443/6 395/469/6 258/336/6
f 286/308/6 401/484/6 391/442/6 238/282/6
f 228/279/6 389/410/6 390/443/6 234/297/6
f 238/282/6 391/442/6 190/192/6 6/11/6
f 387/448/5 402/432/5 394/411/5 356/449/5
f 354/450/5 392/409/5 393/423/5 355/451/5
f 356/449/5 394/411/5 186/156/5 146/189/5
f 354/450/4 351/440/4 389/410/4 392/409/4
f 408/485/6 403/486/6 404/487/6 407/488/6
f 426/489/6 409/490/6 410/491/6 422/492/6
f 421/493/6 413/494/6 414/495/6 423/496/6
f 406/497/6 405/498/6 411/499/6 412/500/6
f 424/501/6 419/502/6 420/503/6 425/504/6
f 416/505/6 415/506/6 417/507/6 418/508/6
f 385/436/2 382/430/2 403/477/2 408/509/2
f 339/421/1 359/460/1 411/483/1 405/510/1
f 366/474/1 374/481/1 417/511/1 415/512/1
f 401/484/2 386/435/2 409/462/2 426/513/2
f 374/481/4 377/478/4 418/514/4 417/511/4
f 363/457/4 395/469/4 423/515/4 414/516/4
f 349/414/3 385/436/3 408/509/3 407/428/3
f 395/469/3 390/443/3 421/517/3 423/515/3
f 362/456/3 347/422/3 406/518/3 412/482/3
f 391/442/3 401/484/3 426/513/3 422/519/3
f 390/443/2 352/441/2 413/520/2 421/517/2
f 352/441/1 363/457/1 414/516/1 413/520/1
f 377/478/3 369/471/3 416/521/3 418/514/3
f 369/471/2 366/474/2 415/512/2 416/521/2
f 397/454/2 370/470/2 419/522/2 424/455/2
f 353/437/4 391/442/4 422/519/4 410/461/4
f 347/422/2 339/421/2 405/510/2 406/518/2
f 370/470/1 378/444/1 420/447/1 419/522/1
f 427/523/1 428/523/1 430/524/1 429/524/1
f 429/524/7 430/524/7 434/525/7 433/525/7
f 433/525/3 434/525/3 432/526/3 431/526/3
f 431/526/8 432/526/8 428/523/8 427/523/8
f 433/525/9 431/526/9 445/527/9 446/528/9
f 434/525/10 430/524/10 436/529/10 438/530/10
f 437/531/3 438/530/3 442/530/3 441/532/3
f 432/526/11 434/525/11 438/530/11 437/531/11
f 430/524/12 428/523/12 435/533/12 436/529/12
f 428/523/13 432/526/13 437/531/13 435/533/13
f 442/534/14 440/535/14 439/536/14 441/537/14
f 436/529/1 435/533/1 439/538/1 440/529/1
f 435/533/8 437/531/8 441/532/8 439/538/8
f 438/530/7 436/529/7 440/529/7 442/530/7
f 444/539/7 446/528/7 450/528/7 448/539/7
f 431/526/9 427/523/9 443/540/9 445/527/9
f 429/524/9 433/525/9 446/528/9 444/539/9
f 427/523/9 429/524/9 444/539/9 443/540/9
f 448/539/15 450/528/15 449/527/15 447/540/15
f 446/528/3 445/527/3 449/527/3 450/528/3
f 443/540/1 444/539/1 448/539/1 447/540/1
f 445/527/8 443/540/8 447/540/8 449/527/8
